<mxfile host="app.diagrams.net" modified="2022-10-13T06:11:09.444Z" agent="5.0 (X11; Linux x86_64) AppleWebKit/537.36 (KHTML, like Gecko) Chrome/104.0.0.0 Safari/537.36" etag="cZnxFAWTuoghdGj7RLOk" version="20.4.0" type="github">
  <diagram id="R2lEEEUBdFMjLlhIrx00" name="Page-1">
    <mxGraphModel dx="1558" dy="815" grid="1" gridSize="10" guides="1" tooltips="1" connect="1" arrows="1" fold="1" page="1" pageScale="1" pageWidth="850" pageHeight="1100" math="0" shadow="0" extFonts="Permanent Marker^https://fonts.googleapis.com/css?family=Permanent+Marker">
      <root>
        <mxCell id="0" />
        <mxCell id="1" parent="0" />
        <mxCell id="C-vyLk0tnHw3VtMMgP7b-23" value="users" style="shape=table;startSize=30;container=1;collapsible=1;childLayout=tableLayout;fixedRows=1;rowLines=0;fontStyle=1;align=center;resizeLast=1;" parent="1" vertex="1">
          <mxGeometry x="-180" y="70" width="250" height="339.9999999999999" as="geometry" />
        </mxCell>
        <mxCell id="C-vyLk0tnHw3VtMMgP7b-24" value="" style="shape=partialRectangle;collapsible=0;dropTarget=0;pointerEvents=0;fillColor=none;points=[[0,0.5],[1,0.5]];portConstraint=eastwest;top=0;left=0;right=0;bottom=1;" parent="C-vyLk0tnHw3VtMMgP7b-23" vertex="1">
          <mxGeometry y="30" width="250" height="30" as="geometry" />
        </mxCell>
        <mxCell id="C-vyLk0tnHw3VtMMgP7b-25" value="PK" style="shape=partialRectangle;overflow=hidden;connectable=0;fillColor=none;top=0;left=0;bottom=0;right=0;fontStyle=1;" parent="C-vyLk0tnHw3VtMMgP7b-24" vertex="1">
          <mxGeometry width="30" height="30" as="geometry">
            <mxRectangle width="30" height="30" as="alternateBounds" />
          </mxGeometry>
        </mxCell>
        <mxCell id="C-vyLk0tnHw3VtMMgP7b-26" value="id int NOT NULL " style="shape=partialRectangle;overflow=hidden;connectable=0;fillColor=none;top=0;left=0;bottom=0;right=0;align=left;spacingLeft=6;fontStyle=5;" parent="C-vyLk0tnHw3VtMMgP7b-24" vertex="1">
          <mxGeometry x="30" width="220" height="30" as="geometry">
            <mxRectangle width="220" height="30" as="alternateBounds" />
          </mxGeometry>
        </mxCell>
        <mxCell id="C-vyLk0tnHw3VtMMgP7b-27" value="" style="shape=partialRectangle;collapsible=0;dropTarget=0;pointerEvents=0;fillColor=none;points=[[0,0.5],[1,0.5]];portConstraint=eastwest;top=0;left=0;right=0;bottom=0;" parent="C-vyLk0tnHw3VtMMgP7b-23" vertex="1">
          <mxGeometry y="60" width="250" height="30" as="geometry" />
        </mxCell>
        <mxCell id="C-vyLk0tnHw3VtMMgP7b-28" value="" style="shape=partialRectangle;overflow=hidden;connectable=0;fillColor=none;top=0;left=0;bottom=0;right=0;" parent="C-vyLk0tnHw3VtMMgP7b-27" vertex="1">
          <mxGeometry width="30" height="30" as="geometry">
            <mxRectangle width="30" height="30" as="alternateBounds" />
          </mxGeometry>
        </mxCell>
        <mxCell id="C-vyLk0tnHw3VtMMgP7b-29" value="email string NOT NULL" style="shape=partialRectangle;overflow=hidden;connectable=0;fillColor=none;top=0;left=0;bottom=0;right=0;align=left;spacingLeft=6;" parent="C-vyLk0tnHw3VtMMgP7b-27" vertex="1">
          <mxGeometry x="30" width="220" height="30" as="geometry">
            <mxRectangle width="220" height="30" as="alternateBounds" />
          </mxGeometry>
        </mxCell>
        <mxCell id="VwRhGvgyy2N87LOp6z-a-1" value="" style="shape=partialRectangle;collapsible=0;dropTarget=0;pointerEvents=0;fillColor=none;points=[[0,0.5],[1,0.5]];portConstraint=eastwest;top=0;left=0;right=0;bottom=0;" parent="C-vyLk0tnHw3VtMMgP7b-23" vertex="1">
          <mxGeometry y="90" width="250" height="30" as="geometry" />
        </mxCell>
        <mxCell id="VwRhGvgyy2N87LOp6z-a-2" value="" style="shape=partialRectangle;overflow=hidden;connectable=0;fillColor=none;top=0;left=0;bottom=0;right=0;" parent="VwRhGvgyy2N87LOp6z-a-1" vertex="1">
          <mxGeometry width="30" height="30" as="geometry">
            <mxRectangle width="30" height="30" as="alternateBounds" />
          </mxGeometry>
        </mxCell>
        <mxCell id="VwRhGvgyy2N87LOp6z-a-3" value="password string NOT NULL" style="shape=partialRectangle;overflow=hidden;connectable=0;fillColor=none;top=0;left=0;bottom=0;right=0;align=left;spacingLeft=6;" parent="VwRhGvgyy2N87LOp6z-a-1" vertex="1">
          <mxGeometry x="30" width="220" height="30" as="geometry">
            <mxRectangle width="220" height="30" as="alternateBounds" />
          </mxGeometry>
        </mxCell>
        <mxCell id="VwRhGvgyy2N87LOp6z-a-4" value="" style="shape=partialRectangle;collapsible=0;dropTarget=0;pointerEvents=0;fillColor=none;points=[[0,0.5],[1,0.5]];portConstraint=eastwest;top=0;left=0;right=0;bottom=0;" parent="C-vyLk0tnHw3VtMMgP7b-23" vertex="1">
          <mxGeometry y="120" width="250" height="30" as="geometry" />
        </mxCell>
        <mxCell id="VwRhGvgyy2N87LOp6z-a-5" value="" style="shape=partialRectangle;overflow=hidden;connectable=0;fillColor=none;top=0;left=0;bottom=0;right=0;" parent="VwRhGvgyy2N87LOp6z-a-4" vertex="1">
          <mxGeometry width="30" height="30" as="geometry">
            <mxRectangle width="30" height="30" as="alternateBounds" />
          </mxGeometry>
        </mxCell>
        <mxCell id="VwRhGvgyy2N87LOp6z-a-6" value="role_id string NOT NULL" style="shape=partialRectangle;overflow=hidden;connectable=0;fillColor=none;top=0;left=0;bottom=0;right=0;align=left;spacingLeft=6;" parent="VwRhGvgyy2N87LOp6z-a-4" vertex="1">
          <mxGeometry x="30" width="220" height="30" as="geometry">
            <mxRectangle width="220" height="30" as="alternateBounds" />
          </mxGeometry>
        </mxCell>
        <mxCell id="Gv8fRj4_d_uhCVpqhOyS-1" value="" style="shape=partialRectangle;collapsible=0;dropTarget=0;pointerEvents=0;fillColor=none;points=[[0,0.5],[1,0.5]];portConstraint=eastwest;top=0;left=0;right=0;bottom=0;" parent="C-vyLk0tnHw3VtMMgP7b-23" vertex="1">
          <mxGeometry y="150" width="250" height="30" as="geometry" />
        </mxCell>
        <mxCell id="Gv8fRj4_d_uhCVpqhOyS-2" value="" style="shape=partialRectangle;overflow=hidden;connectable=0;fillColor=none;top=0;left=0;bottom=0;right=0;" parent="Gv8fRj4_d_uhCVpqhOyS-1" vertex="1">
          <mxGeometry width="30" height="30" as="geometry">
            <mxRectangle width="30" height="30" as="alternateBounds" />
          </mxGeometry>
        </mxCell>
        <mxCell id="Gv8fRj4_d_uhCVpqhOyS-3" value="fullname string NOT NULL" style="shape=partialRectangle;overflow=hidden;connectable=0;fillColor=none;top=0;left=0;bottom=0;right=0;align=left;spacingLeft=6;" parent="Gv8fRj4_d_uhCVpqhOyS-1" vertex="1">
          <mxGeometry x="30" width="220" height="30" as="geometry">
            <mxRectangle width="220" height="30" as="alternateBounds" />
          </mxGeometry>
        </mxCell>
        <mxCell id="Gv8fRj4_d_uhCVpqhOyS-4" value="" style="shape=partialRectangle;collapsible=0;dropTarget=0;pointerEvents=0;fillColor=none;points=[[0,0.5],[1,0.5]];portConstraint=eastwest;top=0;left=0;right=0;bottom=0;" parent="C-vyLk0tnHw3VtMMgP7b-23" vertex="1">
          <mxGeometry y="180" width="250" height="30" as="geometry" />
        </mxCell>
        <mxCell id="Gv8fRj4_d_uhCVpqhOyS-5" value="" style="shape=partialRectangle;overflow=hidden;connectable=0;fillColor=none;top=0;left=0;bottom=0;right=0;" parent="Gv8fRj4_d_uhCVpqhOyS-4" vertex="1">
          <mxGeometry width="30" height="30" as="geometry">
            <mxRectangle width="30" height="30" as="alternateBounds" />
          </mxGeometry>
        </mxCell>
        <mxCell id="Gv8fRj4_d_uhCVpqhOyS-6" value="address string NOT NULL" style="shape=partialRectangle;overflow=hidden;connectable=0;fillColor=none;top=0;left=0;bottom=0;right=0;align=left;spacingLeft=6;" parent="Gv8fRj4_d_uhCVpqhOyS-4" vertex="1">
          <mxGeometry x="30" width="220" height="30" as="geometry">
            <mxRectangle width="220" height="30" as="alternateBounds" />
          </mxGeometry>
        </mxCell>
        <mxCell id="Gv8fRj4_d_uhCVpqhOyS-7" value="" style="shape=partialRectangle;collapsible=0;dropTarget=0;pointerEvents=0;fillColor=none;points=[[0,0.5],[1,0.5]];portConstraint=eastwest;top=0;left=0;right=0;bottom=0;" parent="C-vyLk0tnHw3VtMMgP7b-23" vertex="1">
          <mxGeometry y="210" width="250" height="30" as="geometry" />
        </mxCell>
        <mxCell id="Gv8fRj4_d_uhCVpqhOyS-8" value="" style="shape=partialRectangle;overflow=hidden;connectable=0;fillColor=none;top=0;left=0;bottom=0;right=0;" parent="Gv8fRj4_d_uhCVpqhOyS-7" vertex="1">
          <mxGeometry width="30" height="30" as="geometry">
            <mxRectangle width="30" height="30" as="alternateBounds" />
          </mxGeometry>
        </mxCell>
        <mxCell id="Gv8fRj4_d_uhCVpqhOyS-9" value="phone_no string NOT NULL" style="shape=partialRectangle;overflow=hidden;connectable=0;fillColor=none;top=0;left=0;bottom=0;right=0;align=left;spacingLeft=6;" parent="Gv8fRj4_d_uhCVpqhOyS-7" vertex="1">
          <mxGeometry x="30" width="220" height="30" as="geometry">
            <mxRectangle width="220" height="30" as="alternateBounds" />
          </mxGeometry>
        </mxCell>
        <mxCell id="Gv8fRj4_d_uhCVpqhOyS-10" value="" style="shape=partialRectangle;collapsible=0;dropTarget=0;pointerEvents=0;fillColor=none;points=[[0,0.5],[1,0.5]];portConstraint=eastwest;top=0;left=0;right=0;bottom=0;" parent="C-vyLk0tnHw3VtMMgP7b-23" vertex="1">
          <mxGeometry y="240" width="250" height="30" as="geometry" />
        </mxCell>
        <mxCell id="Gv8fRj4_d_uhCVpqhOyS-11" value="" style="shape=partialRectangle;overflow=hidden;connectable=0;fillColor=none;top=0;left=0;bottom=0;right=0;" parent="Gv8fRj4_d_uhCVpqhOyS-10" vertex="1">
          <mxGeometry width="30" height="30" as="geometry">
            <mxRectangle width="30" height="30" as="alternateBounds" />
          </mxGeometry>
        </mxCell>
        <mxCell id="Gv8fRj4_d_uhCVpqhOyS-12" value="level string NOT NULL" style="shape=partialRectangle;overflow=hidden;connectable=0;fillColor=none;top=0;left=0;bottom=0;right=0;align=left;spacingLeft=6;" parent="Gv8fRj4_d_uhCVpqhOyS-10" vertex="1">
          <mxGeometry x="30" width="220" height="30" as="geometry">
            <mxRectangle width="220" height="30" as="alternateBounds" />
          </mxGeometry>
        </mxCell>
        <mxCell id="Gv8fRj4_d_uhCVpqhOyS-13" value="" style="shape=partialRectangle;collapsible=0;dropTarget=0;pointerEvents=0;fillColor=none;points=[[0,0.5],[1,0.5]];portConstraint=eastwest;top=0;left=0;right=0;bottom=0;" parent="C-vyLk0tnHw3VtMMgP7b-23" vertex="1">
          <mxGeometry y="270" width="250" height="30" as="geometry" />
        </mxCell>
        <mxCell id="Gv8fRj4_d_uhCVpqhOyS-14" value="" style="shape=partialRectangle;overflow=hidden;connectable=0;fillColor=none;top=0;left=0;bottom=0;right=0;" parent="Gv8fRj4_d_uhCVpqhOyS-13" vertex="1">
          <mxGeometry width="30" height="30" as="geometry">
            <mxRectangle width="30" height="30" as="alternateBounds" />
          </mxGeometry>
        </mxCell>
        <mxCell id="Gv8fRj4_d_uhCVpqhOyS-15" value="referral string NOT NULL" style="shape=partialRectangle;overflow=hidden;connectable=0;fillColor=none;top=0;left=0;bottom=0;right=0;align=left;spacingLeft=6;" parent="Gv8fRj4_d_uhCVpqhOyS-13" vertex="1">
          <mxGeometry x="30" width="220" height="30" as="geometry">
            <mxRectangle width="220" height="30" as="alternateBounds" />
          </mxGeometry>
        </mxCell>
        <mxCell id="xxz0sU0E4NPgmf-TShmJ-1" value="" style="shape=partialRectangle;collapsible=0;dropTarget=0;pointerEvents=0;fillColor=none;points=[[0,0.5],[1,0.5]];portConstraint=eastwest;top=0;left=0;right=0;bottom=0;" parent="C-vyLk0tnHw3VtMMgP7b-23" vertex="1">
          <mxGeometry y="300" width="250" height="30" as="geometry" />
        </mxCell>
        <mxCell id="xxz0sU0E4NPgmf-TShmJ-2" value="" style="shape=partialRectangle;overflow=hidden;connectable=0;fillColor=none;top=0;left=0;bottom=0;right=0;" parent="xxz0sU0E4NPgmf-TShmJ-1" vertex="1">
          <mxGeometry width="30" height="30" as="geometry">
            <mxRectangle width="30" height="30" as="alternateBounds" />
          </mxGeometry>
        </mxCell>
        <mxCell id="xxz0sU0E4NPgmf-TShmJ-3" value="ref_referral string NOT NULL" style="shape=partialRectangle;overflow=hidden;connectable=0;fillColor=none;top=0;left=0;bottom=0;right=0;align=left;spacingLeft=6;" parent="xxz0sU0E4NPgmf-TShmJ-1" vertex="1">
          <mxGeometry x="30" width="220" height="30" as="geometry">
            <mxRectangle width="220" height="30" as="alternateBounds" />
          </mxGeometry>
        </mxCell>
        <mxCell id="xxz0sU0E4NPgmf-TShmJ-35" value="favorites" style="shape=table;startSize=30;container=1;collapsible=1;childLayout=tableLayout;fixedRows=1;rowLines=0;fontStyle=1;align=center;resizeLast=1;" parent="1" vertex="1">
          <mxGeometry x="-180" y="610" width="250" height="170" as="geometry" />
        </mxCell>
        <mxCell id="xxz0sU0E4NPgmf-TShmJ-36" value="" style="shape=partialRectangle;collapsible=0;dropTarget=0;pointerEvents=0;fillColor=none;points=[[0,0.5],[1,0.5]];portConstraint=eastwest;top=0;left=0;right=0;bottom=1;" parent="xxz0sU0E4NPgmf-TShmJ-35" vertex="1">
          <mxGeometry y="30" width="250" height="30" as="geometry" />
        </mxCell>
        <mxCell id="xxz0sU0E4NPgmf-TShmJ-37" value="PK" style="shape=partialRectangle;overflow=hidden;connectable=0;fillColor=none;top=0;left=0;bottom=0;right=0;fontStyle=1;" parent="xxz0sU0E4NPgmf-TShmJ-36" vertex="1">
          <mxGeometry width="30" height="30" as="geometry">
            <mxRectangle width="30" height="30" as="alternateBounds" />
          </mxGeometry>
        </mxCell>
        <mxCell id="xxz0sU0E4NPgmf-TShmJ-38" value="id int NOT NULL " style="shape=partialRectangle;overflow=hidden;connectable=0;fillColor=none;top=0;left=0;bottom=0;right=0;align=left;spacingLeft=6;fontStyle=5;" parent="xxz0sU0E4NPgmf-TShmJ-36" vertex="1">
          <mxGeometry x="30" width="220" height="30" as="geometry">
            <mxRectangle width="220" height="30" as="alternateBounds" />
          </mxGeometry>
        </mxCell>
        <mxCell id="xxz0sU0E4NPgmf-TShmJ-39" value="" style="shape=partialRectangle;collapsible=0;dropTarget=0;pointerEvents=0;fillColor=none;points=[[0,0.5],[1,0.5]];portConstraint=eastwest;top=0;left=0;right=0;bottom=0;" parent="xxz0sU0E4NPgmf-TShmJ-35" vertex="1">
          <mxGeometry y="60" width="250" height="35" as="geometry" />
        </mxCell>
        <mxCell id="xxz0sU0E4NPgmf-TShmJ-40" value="" style="shape=partialRectangle;overflow=hidden;connectable=0;fillColor=none;top=0;left=0;bottom=0;right=0;" parent="xxz0sU0E4NPgmf-TShmJ-39" vertex="1">
          <mxGeometry width="30" height="35" as="geometry">
            <mxRectangle width="30" height="35" as="alternateBounds" />
          </mxGeometry>
        </mxCell>
        <mxCell id="xxz0sU0E4NPgmf-TShmJ-41" value="course_id int NOT NULL" style="shape=partialRectangle;overflow=hidden;connectable=0;fillColor=none;top=0;left=0;bottom=0;right=0;align=left;spacingLeft=6;" parent="xxz0sU0E4NPgmf-TShmJ-39" vertex="1">
          <mxGeometry x="30" width="220" height="35" as="geometry">
            <mxRectangle width="220" height="35" as="alternateBounds" />
          </mxGeometry>
        </mxCell>
        <mxCell id="xxz0sU0E4NPgmf-TShmJ-205" value="" style="shape=partialRectangle;collapsible=0;dropTarget=0;pointerEvents=0;fillColor=none;points=[[0,0.5],[1,0.5]];portConstraint=eastwest;top=0;left=0;right=0;bottom=0;" parent="xxz0sU0E4NPgmf-TShmJ-35" vertex="1">
          <mxGeometry y="95" width="250" height="35" as="geometry" />
        </mxCell>
        <mxCell id="xxz0sU0E4NPgmf-TShmJ-206" value="" style="shape=partialRectangle;overflow=hidden;connectable=0;fillColor=none;top=0;left=0;bottom=0;right=0;" parent="xxz0sU0E4NPgmf-TShmJ-205" vertex="1">
          <mxGeometry width="30" height="35" as="geometry">
            <mxRectangle width="30" height="35" as="alternateBounds" />
          </mxGeometry>
        </mxCell>
        <mxCell id="xxz0sU0E4NPgmf-TShmJ-207" value="user_id int NOT NULL" style="shape=partialRectangle;overflow=hidden;connectable=0;fillColor=none;top=0;left=0;bottom=0;right=0;align=left;spacingLeft=6;" parent="xxz0sU0E4NPgmf-TShmJ-205" vertex="1">
          <mxGeometry x="30" width="220" height="35" as="geometry">
            <mxRectangle width="220" height="35" as="alternateBounds" />
          </mxGeometry>
        </mxCell>
        <mxCell id="xxz0sU0E4NPgmf-TShmJ-49" value="" style="shape=partialRectangle;collapsible=0;dropTarget=0;pointerEvents=0;fillColor=none;points=[[0,0.5],[1,0.5]];portConstraint=eastwest;top=0;left=0;right=0;bottom=0;" parent="xxz0sU0E4NPgmf-TShmJ-35" vertex="1">
          <mxGeometry y="130" width="250" height="30" as="geometry" />
        </mxCell>
        <mxCell id="xxz0sU0E4NPgmf-TShmJ-50" value="" style="shape=partialRectangle;overflow=hidden;connectable=0;fillColor=none;top=0;left=0;bottom=0;right=0;" parent="xxz0sU0E4NPgmf-TShmJ-49" vertex="1">
          <mxGeometry width="30" height="30" as="geometry">
            <mxRectangle width="30" height="30" as="alternateBounds" />
          </mxGeometry>
        </mxCell>
        <mxCell id="xxz0sU0E4NPgmf-TShmJ-51" value="date string NOT NULL" style="shape=partialRectangle;overflow=hidden;connectable=0;fillColor=none;top=0;left=0;bottom=0;right=0;align=left;spacingLeft=6;" parent="xxz0sU0E4NPgmf-TShmJ-49" vertex="1">
          <mxGeometry x="30" width="220" height="30" as="geometry">
            <mxRectangle width="220" height="30" as="alternateBounds" />
          </mxGeometry>
        </mxCell>
        <mxCell id="xxz0sU0E4NPgmf-TShmJ-52" value="courses" style="shape=table;startSize=30;container=1;collapsible=1;childLayout=tableLayout;fixedRows=1;rowLines=0;fontStyle=1;align=center;resizeLast=1;" parent="1" vertex="1">
          <mxGeometry x="130" y="510.5" width="250" height="368.9999999999999" as="geometry" />
        </mxCell>
        <mxCell id="xxz0sU0E4NPgmf-TShmJ-53" value="" style="shape=partialRectangle;collapsible=0;dropTarget=0;pointerEvents=0;fillColor=none;points=[[0,0.5],[1,0.5]];portConstraint=eastwest;top=0;left=0;right=0;bottom=1;" parent="xxz0sU0E4NPgmf-TShmJ-52" vertex="1">
          <mxGeometry y="30" width="250" height="30" as="geometry" />
        </mxCell>
        <mxCell id="xxz0sU0E4NPgmf-TShmJ-54" value="PK" style="shape=partialRectangle;overflow=hidden;connectable=0;fillColor=none;top=0;left=0;bottom=0;right=0;fontStyle=1;" parent="xxz0sU0E4NPgmf-TShmJ-53" vertex="1">
          <mxGeometry width="30" height="30" as="geometry">
            <mxRectangle width="30" height="30" as="alternateBounds" />
          </mxGeometry>
        </mxCell>
        <mxCell id="xxz0sU0E4NPgmf-TShmJ-55" value="id int NOT NULL " style="shape=partialRectangle;overflow=hidden;connectable=0;fillColor=none;top=0;left=0;bottom=0;right=0;align=left;spacingLeft=6;fontStyle=5;" parent="xxz0sU0E4NPgmf-TShmJ-53" vertex="1">
          <mxGeometry x="30" width="220" height="30" as="geometry">
            <mxRectangle width="220" height="30" as="alternateBounds" />
          </mxGeometry>
        </mxCell>
        <mxCell id="xxz0sU0E4NPgmf-TShmJ-56" value="" style="shape=partialRectangle;collapsible=0;dropTarget=0;pointerEvents=0;fillColor=none;points=[[0,0.5],[1,0.5]];portConstraint=eastwest;top=0;left=0;right=0;bottom=0;" parent="xxz0sU0E4NPgmf-TShmJ-52" vertex="1">
          <mxGeometry y="60" width="250" height="30" as="geometry" />
        </mxCell>
        <mxCell id="xxz0sU0E4NPgmf-TShmJ-57" value="" style="shape=partialRectangle;overflow=hidden;connectable=0;fillColor=none;top=0;left=0;bottom=0;right=0;" parent="xxz0sU0E4NPgmf-TShmJ-56" vertex="1">
          <mxGeometry width="30" height="30" as="geometry">
            <mxRectangle width="30" height="30" as="alternateBounds" />
          </mxGeometry>
        </mxCell>
        <mxCell id="xxz0sU0E4NPgmf-TShmJ-58" value="category_id string NOT NULL" style="shape=partialRectangle;overflow=hidden;connectable=0;fillColor=none;top=0;left=0;bottom=0;right=0;align=left;spacingLeft=6;" parent="xxz0sU0E4NPgmf-TShmJ-56" vertex="1">
          <mxGeometry x="30" width="220" height="30" as="geometry">
            <mxRectangle width="220" height="30" as="alternateBounds" />
          </mxGeometry>
        </mxCell>
        <mxCell id="xxz0sU0E4NPgmf-TShmJ-59" value="" style="shape=partialRectangle;collapsible=0;dropTarget=0;pointerEvents=0;fillColor=none;points=[[0,0.5],[1,0.5]];portConstraint=eastwest;top=0;left=0;right=0;bottom=0;" parent="xxz0sU0E4NPgmf-TShmJ-52" vertex="1">
          <mxGeometry y="90" width="250" height="30" as="geometry" />
        </mxCell>
        <mxCell id="xxz0sU0E4NPgmf-TShmJ-60" value="" style="shape=partialRectangle;overflow=hidden;connectable=0;fillColor=none;top=0;left=0;bottom=0;right=0;" parent="xxz0sU0E4NPgmf-TShmJ-59" vertex="1">
          <mxGeometry width="30" height="30" as="geometry">
            <mxRectangle width="30" height="30" as="alternateBounds" />
          </mxGeometry>
        </mxCell>
        <mxCell id="xxz0sU0E4NPgmf-TShmJ-61" value="tag_id string NOT NULL" style="shape=partialRectangle;overflow=hidden;connectable=0;fillColor=none;top=0;left=0;bottom=0;right=0;align=left;spacingLeft=6;" parent="xxz0sU0E4NPgmf-TShmJ-59" vertex="1">
          <mxGeometry x="30" width="220" height="30" as="geometry">
            <mxRectangle width="220" height="30" as="alternateBounds" />
          </mxGeometry>
        </mxCell>
        <mxCell id="xxz0sU0E4NPgmf-TShmJ-62" value="" style="shape=partialRectangle;collapsible=0;dropTarget=0;pointerEvents=0;fillColor=none;points=[[0,0.5],[1,0.5]];portConstraint=eastwest;top=0;left=0;right=0;bottom=0;" parent="xxz0sU0E4NPgmf-TShmJ-52" vertex="1">
          <mxGeometry y="120" width="250" height="30" as="geometry" />
        </mxCell>
        <mxCell id="xxz0sU0E4NPgmf-TShmJ-63" value="" style="shape=partialRectangle;overflow=hidden;connectable=0;fillColor=none;top=0;left=0;bottom=0;right=0;" parent="xxz0sU0E4NPgmf-TShmJ-62" vertex="1">
          <mxGeometry width="30" height="30" as="geometry">
            <mxRectangle width="30" height="30" as="alternateBounds" />
          </mxGeometry>
        </mxCell>
        <mxCell id="xxz0sU0E4NPgmf-TShmJ-64" value="title string NOT NULL" style="shape=partialRectangle;overflow=hidden;connectable=0;fillColor=none;top=0;left=0;bottom=0;right=0;align=left;spacingLeft=6;" parent="xxz0sU0E4NPgmf-TShmJ-62" vertex="1">
          <mxGeometry x="30" width="220" height="30" as="geometry">
            <mxRectangle width="220" height="30" as="alternateBounds" />
          </mxGeometry>
        </mxCell>
        <mxCell id="xxz0sU0E4NPgmf-TShmJ-65" value="" style="shape=partialRectangle;collapsible=0;dropTarget=0;pointerEvents=0;fillColor=none;points=[[0,0.5],[1,0.5]];portConstraint=eastwest;top=0;left=0;right=0;bottom=0;" parent="xxz0sU0E4NPgmf-TShmJ-52" vertex="1">
          <mxGeometry y="150" width="250" height="30" as="geometry" />
        </mxCell>
        <mxCell id="xxz0sU0E4NPgmf-TShmJ-66" value="" style="shape=partialRectangle;overflow=hidden;connectable=0;fillColor=none;top=0;left=0;bottom=0;right=0;" parent="xxz0sU0E4NPgmf-TShmJ-65" vertex="1">
          <mxGeometry width="30" height="30" as="geometry">
            <mxRectangle width="30" height="30" as="alternateBounds" />
          </mxGeometry>
        </mxCell>
        <mxCell id="xxz0sU0E4NPgmf-TShmJ-67" value="slug string NOT NULL" style="shape=partialRectangle;overflow=hidden;connectable=0;fillColor=none;top=0;left=0;bottom=0;right=0;align=left;spacingLeft=6;" parent="xxz0sU0E4NPgmf-TShmJ-65" vertex="1">
          <mxGeometry x="30" width="220" height="30" as="geometry">
            <mxRectangle width="220" height="30" as="alternateBounds" />
          </mxGeometry>
        </mxCell>
        <mxCell id="xxz0sU0E4NPgmf-TShmJ-68" value="" style="shape=partialRectangle;collapsible=0;dropTarget=0;pointerEvents=0;fillColor=none;points=[[0,0.5],[1,0.5]];portConstraint=eastwest;top=0;left=0;right=0;bottom=0;" parent="xxz0sU0E4NPgmf-TShmJ-52" vertex="1">
          <mxGeometry y="180" width="250" height="30" as="geometry" />
        </mxCell>
        <mxCell id="xxz0sU0E4NPgmf-TShmJ-69" value="" style="shape=partialRectangle;overflow=hidden;connectable=0;fillColor=none;top=0;left=0;bottom=0;right=0;" parent="xxz0sU0E4NPgmf-TShmJ-68" vertex="1">
          <mxGeometry width="30" height="30" as="geometry">
            <mxRectangle width="30" height="30" as="alternateBounds" />
          </mxGeometry>
        </mxCell>
        <mxCell id="xxz0sU0E4NPgmf-TShmJ-70" value="summary_desc string NOT NULL" style="shape=partialRectangle;overflow=hidden;connectable=0;fillColor=none;top=0;left=0;bottom=0;right=0;align=left;spacingLeft=6;" parent="xxz0sU0E4NPgmf-TShmJ-68" vertex="1">
          <mxGeometry x="30" width="220" height="30" as="geometry">
            <mxRectangle width="220" height="30" as="alternateBounds" />
          </mxGeometry>
        </mxCell>
        <mxCell id="xxz0sU0E4NPgmf-TShmJ-71" value="" style="shape=partialRectangle;collapsible=0;dropTarget=0;pointerEvents=0;fillColor=none;points=[[0,0.5],[1,0.5]];portConstraint=eastwest;top=0;left=0;right=0;bottom=0;" parent="xxz0sU0E4NPgmf-TShmJ-52" vertex="1">
          <mxGeometry y="210" width="250" height="30" as="geometry" />
        </mxCell>
        <mxCell id="xxz0sU0E4NPgmf-TShmJ-72" value="" style="shape=partialRectangle;overflow=hidden;connectable=0;fillColor=none;top=0;left=0;bottom=0;right=0;" parent="xxz0sU0E4NPgmf-TShmJ-71" vertex="1">
          <mxGeometry width="30" height="30" as="geometry">
            <mxRectangle width="30" height="30" as="alternateBounds" />
          </mxGeometry>
        </mxCell>
        <mxCell id="xxz0sU0E4NPgmf-TShmJ-73" value="content string NOT NULL" style="shape=partialRectangle;overflow=hidden;connectable=0;fillColor=none;top=0;left=0;bottom=0;right=0;align=left;spacingLeft=6;" parent="xxz0sU0E4NPgmf-TShmJ-71" vertex="1">
          <mxGeometry x="30" width="220" height="30" as="geometry">
            <mxRectangle width="220" height="30" as="alternateBounds" />
          </mxGeometry>
        </mxCell>
        <mxCell id="xxz0sU0E4NPgmf-TShmJ-74" value="" style="shape=partialRectangle;collapsible=0;dropTarget=0;pointerEvents=0;fillColor=none;points=[[0,0.5],[1,0.5]];portConstraint=eastwest;top=0;left=0;right=0;bottom=0;" parent="xxz0sU0E4NPgmf-TShmJ-52" vertex="1">
          <mxGeometry y="240" width="250" height="30" as="geometry" />
        </mxCell>
        <mxCell id="xxz0sU0E4NPgmf-TShmJ-75" value="" style="shape=partialRectangle;overflow=hidden;connectable=0;fillColor=none;top=0;left=0;bottom=0;right=0;" parent="xxz0sU0E4NPgmf-TShmJ-74" vertex="1">
          <mxGeometry width="30" height="30" as="geometry">
            <mxRectangle width="30" height="30" as="alternateBounds" />
          </mxGeometry>
        </mxCell>
        <mxCell id="xxz0sU0E4NPgmf-TShmJ-76" value="status string NOT NULL" style="shape=partialRectangle;overflow=hidden;connectable=0;fillColor=none;top=0;left=0;bottom=0;right=0;align=left;spacingLeft=6;" parent="xxz0sU0E4NPgmf-TShmJ-74" vertex="1">
          <mxGeometry x="30" width="220" height="30" as="geometry">
            <mxRectangle width="220" height="30" as="alternateBounds" />
          </mxGeometry>
        </mxCell>
        <mxCell id="xxz0sU0E4NPgmf-TShmJ-77" value="" style="shape=partialRectangle;collapsible=0;dropTarget=0;pointerEvents=0;fillColor=none;points=[[0,0.5],[1,0.5]];portConstraint=eastwest;top=0;left=0;right=0;bottom=0;" parent="xxz0sU0E4NPgmf-TShmJ-52" vertex="1">
          <mxGeometry y="270" width="250" height="30" as="geometry" />
        </mxCell>
        <mxCell id="xxz0sU0E4NPgmf-TShmJ-78" value="" style="shape=partialRectangle;overflow=hidden;connectable=0;fillColor=none;top=0;left=0;bottom=0;right=0;" parent="xxz0sU0E4NPgmf-TShmJ-77" vertex="1">
          <mxGeometry width="30" height="30" as="geometry">
            <mxRectangle width="30" height="30" as="alternateBounds" />
          </mxGeometry>
        </mxCell>
        <mxCell id="xxz0sU0E4NPgmf-TShmJ-79" value="img_thumbnail string NOT NULL" style="shape=partialRectangle;overflow=hidden;connectable=0;fillColor=none;top=0;left=0;bottom=0;right=0;align=left;spacingLeft=6;" parent="xxz0sU0E4NPgmf-TShmJ-77" vertex="1">
          <mxGeometry x="30" width="220" height="30" as="geometry">
            <mxRectangle width="220" height="30" as="alternateBounds" />
          </mxGeometry>
        </mxCell>
        <mxCell id="xxz0sU0E4NPgmf-TShmJ-80" value="" style="shape=partialRectangle;collapsible=0;dropTarget=0;pointerEvents=0;fillColor=none;points=[[0,0.5],[1,0.5]];portConstraint=eastwest;top=0;left=0;right=0;bottom=0;" parent="xxz0sU0E4NPgmf-TShmJ-52" vertex="1">
          <mxGeometry y="300" width="250" height="30" as="geometry" />
        </mxCell>
        <mxCell id="xxz0sU0E4NPgmf-TShmJ-81" value="" style="shape=partialRectangle;overflow=hidden;connectable=0;fillColor=none;top=0;left=0;bottom=0;right=0;" parent="xxz0sU0E4NPgmf-TShmJ-80" vertex="1">
          <mxGeometry width="30" height="30" as="geometry">
            <mxRectangle width="30" height="30" as="alternateBounds" />
          </mxGeometry>
        </mxCell>
        <mxCell id="xxz0sU0E4NPgmf-TShmJ-82" value="img_url string NOT NULL" style="shape=partialRectangle;overflow=hidden;connectable=0;fillColor=none;top=0;left=0;bottom=0;right=0;align=left;spacingLeft=6;" parent="xxz0sU0E4NPgmf-TShmJ-80" vertex="1">
          <mxGeometry x="30" width="220" height="30" as="geometry">
            <mxRectangle width="220" height="30" as="alternateBounds" />
          </mxGeometry>
        </mxCell>
        <mxCell id="xxz0sU0E4NPgmf-TShmJ-153" value="" style="shape=partialRectangle;collapsible=0;dropTarget=0;pointerEvents=0;fillColor=none;points=[[0,0.5],[1,0.5]];portConstraint=eastwest;top=0;left=0;right=0;bottom=0;" parent="xxz0sU0E4NPgmf-TShmJ-52" vertex="1">
          <mxGeometry y="330" width="250" height="30" as="geometry" />
        </mxCell>
        <mxCell id="xxz0sU0E4NPgmf-TShmJ-154" value="" style="shape=partialRectangle;overflow=hidden;connectable=0;fillColor=none;top=0;left=0;bottom=0;right=0;" parent="xxz0sU0E4NPgmf-TShmJ-153" vertex="1">
          <mxGeometry width="30" height="30" as="geometry">
            <mxRectangle width="30" height="30" as="alternateBounds" />
          </mxGeometry>
        </mxCell>
        <mxCell id="xxz0sU0E4NPgmf-TShmJ-155" value="gifts_name string NOT NULL" style="shape=partialRectangle;overflow=hidden;connectable=0;fillColor=none;top=0;left=0;bottom=0;right=0;align=left;spacingLeft=6;" parent="xxz0sU0E4NPgmf-TShmJ-153" vertex="1">
          <mxGeometry x="30" width="220" height="30" as="geometry">
            <mxRectangle width="220" height="30" as="alternateBounds" />
          </mxGeometry>
        </mxCell>
        <mxCell id="xxz0sU0E4NPgmf-TShmJ-83" value="tags" style="shape=table;startSize=30;container=1;collapsible=1;childLayout=tableLayout;fixedRows=1;rowLines=0;fontStyle=1;align=center;resizeLast=1;" parent="1" vertex="1">
          <mxGeometry x="440" y="690" width="250" height="100" as="geometry" />
        </mxCell>
        <mxCell id="xxz0sU0E4NPgmf-TShmJ-84" value="" style="shape=partialRectangle;collapsible=0;dropTarget=0;pointerEvents=0;fillColor=none;points=[[0,0.5],[1,0.5]];portConstraint=eastwest;top=0;left=0;right=0;bottom=1;" parent="xxz0sU0E4NPgmf-TShmJ-83" vertex="1">
          <mxGeometry y="30" width="250" height="30" as="geometry" />
        </mxCell>
        <mxCell id="xxz0sU0E4NPgmf-TShmJ-85" value="PK" style="shape=partialRectangle;overflow=hidden;connectable=0;fillColor=none;top=0;left=0;bottom=0;right=0;fontStyle=1;" parent="xxz0sU0E4NPgmf-TShmJ-84" vertex="1">
          <mxGeometry width="30" height="30" as="geometry">
            <mxRectangle width="30" height="30" as="alternateBounds" />
          </mxGeometry>
        </mxCell>
        <mxCell id="xxz0sU0E4NPgmf-TShmJ-86" value="id int NOT NULL " style="shape=partialRectangle;overflow=hidden;connectable=0;fillColor=none;top=0;left=0;bottom=0;right=0;align=left;spacingLeft=6;fontStyle=5;" parent="xxz0sU0E4NPgmf-TShmJ-84" vertex="1">
          <mxGeometry x="30" width="220" height="30" as="geometry">
            <mxRectangle width="220" height="30" as="alternateBounds" />
          </mxGeometry>
        </mxCell>
        <mxCell id="xxz0sU0E4NPgmf-TShmJ-87" value="" style="shape=partialRectangle;collapsible=0;dropTarget=0;pointerEvents=0;fillColor=none;points=[[0,0.5],[1,0.5]];portConstraint=eastwest;top=0;left=0;right=0;bottom=0;" parent="xxz0sU0E4NPgmf-TShmJ-83" vertex="1">
          <mxGeometry y="60" width="250" height="30" as="geometry" />
        </mxCell>
        <mxCell id="xxz0sU0E4NPgmf-TShmJ-88" value="" style="shape=partialRectangle;overflow=hidden;connectable=0;fillColor=none;top=0;left=0;bottom=0;right=0;" parent="xxz0sU0E4NPgmf-TShmJ-87" vertex="1">
          <mxGeometry width="30" height="30" as="geometry">
            <mxRectangle width="30" height="30" as="alternateBounds" />
          </mxGeometry>
        </mxCell>
        <mxCell id="xxz0sU0E4NPgmf-TShmJ-89" value="name int NOT NULL" style="shape=partialRectangle;overflow=hidden;connectable=0;fillColor=none;top=0;left=0;bottom=0;right=0;align=left;spacingLeft=6;" parent="xxz0sU0E4NPgmf-TShmJ-87" vertex="1">
          <mxGeometry x="30" width="220" height="30" as="geometry">
            <mxRectangle width="220" height="30" as="alternateBounds" />
          </mxGeometry>
        </mxCell>
        <mxCell id="xxz0sU0E4NPgmf-TShmJ-93" value="categories" style="shape=table;startSize=30;container=1;collapsible=1;childLayout=tableLayout;fixedRows=1;rowLines=0;fontStyle=1;align=center;resizeLast=1;" parent="1" vertex="1">
          <mxGeometry x="440" y="570" width="250" height="100" as="geometry" />
        </mxCell>
        <mxCell id="xxz0sU0E4NPgmf-TShmJ-94" value="" style="shape=partialRectangle;collapsible=0;dropTarget=0;pointerEvents=0;fillColor=none;points=[[0,0.5],[1,0.5]];portConstraint=eastwest;top=0;left=0;right=0;bottom=1;" parent="xxz0sU0E4NPgmf-TShmJ-93" vertex="1">
          <mxGeometry y="30" width="250" height="30" as="geometry" />
        </mxCell>
        <mxCell id="xxz0sU0E4NPgmf-TShmJ-95" value="PK" style="shape=partialRectangle;overflow=hidden;connectable=0;fillColor=none;top=0;left=0;bottom=0;right=0;fontStyle=1;" parent="xxz0sU0E4NPgmf-TShmJ-94" vertex="1">
          <mxGeometry width="30" height="30" as="geometry">
            <mxRectangle width="30" height="30" as="alternateBounds" />
          </mxGeometry>
        </mxCell>
        <mxCell id="xxz0sU0E4NPgmf-TShmJ-96" value="id int NOT NULL " style="shape=partialRectangle;overflow=hidden;connectable=0;fillColor=none;top=0;left=0;bottom=0;right=0;align=left;spacingLeft=6;fontStyle=5;" parent="xxz0sU0E4NPgmf-TShmJ-94" vertex="1">
          <mxGeometry x="30" width="220" height="30" as="geometry">
            <mxRectangle width="220" height="30" as="alternateBounds" />
          </mxGeometry>
        </mxCell>
        <mxCell id="xxz0sU0E4NPgmf-TShmJ-97" value="" style="shape=partialRectangle;collapsible=0;dropTarget=0;pointerEvents=0;fillColor=none;points=[[0,0.5],[1,0.5]];portConstraint=eastwest;top=0;left=0;right=0;bottom=0;" parent="xxz0sU0E4NPgmf-TShmJ-93" vertex="1">
          <mxGeometry y="60" width="250" height="30" as="geometry" />
        </mxCell>
        <mxCell id="xxz0sU0E4NPgmf-TShmJ-98" value="" style="shape=partialRectangle;overflow=hidden;connectable=0;fillColor=none;top=0;left=0;bottom=0;right=0;" parent="xxz0sU0E4NPgmf-TShmJ-97" vertex="1">
          <mxGeometry width="30" height="30" as="geometry">
            <mxRectangle width="30" height="30" as="alternateBounds" />
          </mxGeometry>
        </mxCell>
        <mxCell id="xxz0sU0E4NPgmf-TShmJ-99" value="name int NOT NULL" style="shape=partialRectangle;overflow=hidden;connectable=0;fillColor=none;top=0;left=0;bottom=0;right=0;align=left;spacingLeft=6;" parent="xxz0sU0E4NPgmf-TShmJ-97" vertex="1">
          <mxGeometry x="30" width="220" height="30" as="geometry">
            <mxRectangle width="220" height="30" as="alternateBounds" />
          </mxGeometry>
        </mxCell>
        <mxCell id="xxz0sU0E4NPgmf-TShmJ-100" value="invoices" style="shape=table;startSize=30;container=1;collapsible=1;childLayout=tableLayout;fixedRows=1;rowLines=0;fontStyle=1;align=center;resizeLast=1;" parent="1" vertex="1">
          <mxGeometry x="130" y="70" width="250" height="240" as="geometry" />
        </mxCell>
        <mxCell id="xxz0sU0E4NPgmf-TShmJ-101" value="" style="shape=partialRectangle;collapsible=0;dropTarget=0;pointerEvents=0;fillColor=none;points=[[0,0.5],[1,0.5]];portConstraint=eastwest;top=0;left=0;right=0;bottom=1;" parent="xxz0sU0E4NPgmf-TShmJ-100" vertex="1">
          <mxGeometry y="30" width="250" height="30" as="geometry" />
        </mxCell>
        <mxCell id="xxz0sU0E4NPgmf-TShmJ-102" value="PK" style="shape=partialRectangle;overflow=hidden;connectable=0;fillColor=none;top=0;left=0;bottom=0;right=0;fontStyle=1;" parent="xxz0sU0E4NPgmf-TShmJ-101" vertex="1">
          <mxGeometry width="30" height="30" as="geometry">
            <mxRectangle width="30" height="30" as="alternateBounds" />
          </mxGeometry>
        </mxCell>
        <mxCell id="xxz0sU0E4NPgmf-TShmJ-103" value="id int NOT NULL " style="shape=partialRectangle;overflow=hidden;connectable=0;fillColor=none;top=0;left=0;bottom=0;right=0;align=left;spacingLeft=6;fontStyle=5;" parent="xxz0sU0E4NPgmf-TShmJ-101" vertex="1">
          <mxGeometry x="30" width="220" height="30" as="geometry">
            <mxRectangle width="220" height="30" as="alternateBounds" />
          </mxGeometry>
        </mxCell>
        <mxCell id="xxz0sU0E4NPgmf-TShmJ-104" value="" style="shape=partialRectangle;collapsible=0;dropTarget=0;pointerEvents=0;fillColor=none;points=[[0,0.5],[1,0.5]];portConstraint=eastwest;top=0;left=0;right=0;bottom=0;" parent="xxz0sU0E4NPgmf-TShmJ-100" vertex="1">
          <mxGeometry y="60" width="250" height="30" as="geometry" />
        </mxCell>
        <mxCell id="xxz0sU0E4NPgmf-TShmJ-105" value="" style="shape=partialRectangle;overflow=hidden;connectable=0;fillColor=none;top=0;left=0;bottom=0;right=0;" parent="xxz0sU0E4NPgmf-TShmJ-104" vertex="1">
          <mxGeometry width="30" height="30" as="geometry">
            <mxRectangle width="30" height="30" as="alternateBounds" />
          </mxGeometry>
        </mxCell>
        <mxCell id="xxz0sU0E4NPgmf-TShmJ-106" value="user_id int NOT NULL" style="shape=partialRectangle;overflow=hidden;connectable=0;fillColor=none;top=0;left=0;bottom=0;right=0;align=left;spacingLeft=6;" parent="xxz0sU0E4NPgmf-TShmJ-104" vertex="1">
          <mxGeometry x="30" width="220" height="30" as="geometry">
            <mxRectangle width="220" height="30" as="alternateBounds" />
          </mxGeometry>
        </mxCell>
        <mxCell id="xxz0sU0E4NPgmf-TShmJ-107" value="" style="shape=partialRectangle;collapsible=0;dropTarget=0;pointerEvents=0;fillColor=none;points=[[0,0.5],[1,0.5]];portConstraint=eastwest;top=0;left=0;right=0;bottom=0;" parent="xxz0sU0E4NPgmf-TShmJ-100" vertex="1">
          <mxGeometry y="90" width="250" height="30" as="geometry" />
        </mxCell>
        <mxCell id="xxz0sU0E4NPgmf-TShmJ-108" value="" style="shape=partialRectangle;overflow=hidden;connectable=0;fillColor=none;top=0;left=0;bottom=0;right=0;" parent="xxz0sU0E4NPgmf-TShmJ-107" vertex="1">
          <mxGeometry width="30" height="30" as="geometry">
            <mxRectangle width="30" height="30" as="alternateBounds" />
          </mxGeometry>
        </mxCell>
        <mxCell id="xxz0sU0E4NPgmf-TShmJ-109" value="status int NOT NULL" style="shape=partialRectangle;overflow=hidden;connectable=0;fillColor=none;top=0;left=0;bottom=0;right=0;align=left;spacingLeft=6;" parent="xxz0sU0E4NPgmf-TShmJ-107" vertex="1">
          <mxGeometry x="30" width="220" height="30" as="geometry">
            <mxRectangle width="220" height="30" as="alternateBounds" />
          </mxGeometry>
        </mxCell>
        <mxCell id="xxz0sU0E4NPgmf-TShmJ-110" value="" style="shape=partialRectangle;collapsible=0;dropTarget=0;pointerEvents=0;fillColor=none;points=[[0,0.5],[1,0.5]];portConstraint=eastwest;top=0;left=0;right=0;bottom=0;" parent="xxz0sU0E4NPgmf-TShmJ-100" vertex="1">
          <mxGeometry y="120" width="250" height="30" as="geometry" />
        </mxCell>
        <mxCell id="xxz0sU0E4NPgmf-TShmJ-111" value="" style="shape=partialRectangle;overflow=hidden;connectable=0;fillColor=none;top=0;left=0;bottom=0;right=0;" parent="xxz0sU0E4NPgmf-TShmJ-110" vertex="1">
          <mxGeometry width="30" height="30" as="geometry">
            <mxRectangle width="30" height="30" as="alternateBounds" />
          </mxGeometry>
        </mxCell>
        <mxCell id="xxz0sU0E4NPgmf-TShmJ-112" value="total int NOT NULL" style="shape=partialRectangle;overflow=hidden;connectable=0;fillColor=none;top=0;left=0;bottom=0;right=0;align=left;spacingLeft=6;" parent="xxz0sU0E4NPgmf-TShmJ-110" vertex="1">
          <mxGeometry x="30" width="220" height="30" as="geometry">
            <mxRectangle width="220" height="30" as="alternateBounds" />
          </mxGeometry>
        </mxCell>
        <mxCell id="xxz0sU0E4NPgmf-TShmJ-113" value="" style="shape=partialRectangle;collapsible=0;dropTarget=0;pointerEvents=0;fillColor=none;points=[[0,0.5],[1,0.5]];portConstraint=eastwest;top=0;left=0;right=0;bottom=0;" parent="xxz0sU0E4NPgmf-TShmJ-100" vertex="1">
          <mxGeometry y="150" width="250" height="30" as="geometry" />
        </mxCell>
        <mxCell id="xxz0sU0E4NPgmf-TShmJ-114" value="" style="shape=partialRectangle;overflow=hidden;connectable=0;fillColor=none;top=0;left=0;bottom=0;right=0;" parent="xxz0sU0E4NPgmf-TShmJ-113" vertex="1">
          <mxGeometry width="30" height="30" as="geometry">
            <mxRectangle width="30" height="30" as="alternateBounds" />
          </mxGeometry>
        </mxCell>
        <mxCell id="xxz0sU0E4NPgmf-TShmJ-115" value="payment_date int NOT NULL" style="shape=partialRectangle;overflow=hidden;connectable=0;fillColor=none;top=0;left=0;bottom=0;right=0;align=left;spacingLeft=6;" parent="xxz0sU0E4NPgmf-TShmJ-113" vertex="1">
          <mxGeometry x="30" width="220" height="30" as="geometry">
            <mxRectangle width="220" height="30" as="alternateBounds" />
          </mxGeometry>
        </mxCell>
        <mxCell id="xxz0sU0E4NPgmf-TShmJ-116" value="" style="shape=partialRectangle;collapsible=0;dropTarget=0;pointerEvents=0;fillColor=none;points=[[0,0.5],[1,0.5]];portConstraint=eastwest;top=0;left=0;right=0;bottom=0;" parent="xxz0sU0E4NPgmf-TShmJ-100" vertex="1">
          <mxGeometry y="180" width="250" height="20" as="geometry" />
        </mxCell>
        <mxCell id="xxz0sU0E4NPgmf-TShmJ-117" value="" style="shape=partialRectangle;overflow=hidden;connectable=0;fillColor=none;top=0;left=0;bottom=0;right=0;" parent="xxz0sU0E4NPgmf-TShmJ-116" vertex="1">
          <mxGeometry width="30" height="20" as="geometry">
            <mxRectangle width="30" height="20" as="alternateBounds" />
          </mxGeometry>
        </mxCell>
        <mxCell id="xxz0sU0E4NPgmf-TShmJ-118" value="voucher_id int NOT NULL" style="shape=partialRectangle;overflow=hidden;connectable=0;fillColor=none;top=0;left=0;bottom=0;right=0;align=left;spacingLeft=6;" parent="xxz0sU0E4NPgmf-TShmJ-116" vertex="1">
          <mxGeometry x="30" width="220" height="20" as="geometry">
            <mxRectangle width="220" height="20" as="alternateBounds" />
          </mxGeometry>
        </mxCell>
        <mxCell id="xxz0sU0E4NPgmf-TShmJ-119" value="" style="shape=partialRectangle;collapsible=0;dropTarget=0;pointerEvents=0;fillColor=none;points=[[0,0.5],[1,0.5]];portConstraint=eastwest;top=0;left=0;right=0;bottom=0;" parent="xxz0sU0E4NPgmf-TShmJ-100" vertex="1">
          <mxGeometry y="200" width="250" height="30" as="geometry" />
        </mxCell>
        <mxCell id="xxz0sU0E4NPgmf-TShmJ-120" value="" style="shape=partialRectangle;overflow=hidden;connectable=0;fillColor=none;top=0;left=0;bottom=0;right=0;" parent="xxz0sU0E4NPgmf-TShmJ-119" vertex="1">
          <mxGeometry width="30" height="30" as="geometry">
            <mxRectangle width="30" height="30" as="alternateBounds" />
          </mxGeometry>
        </mxCell>
        <mxCell id="xxz0sU0E4NPgmf-TShmJ-121" value="benefit_discount int NOT NULL" style="shape=partialRectangle;overflow=hidden;connectable=0;fillColor=none;top=0;left=0;bottom=0;right=0;align=left;spacingLeft=6;" parent="xxz0sU0E4NPgmf-TShmJ-119" vertex="1">
          <mxGeometry x="30" width="220" height="30" as="geometry">
            <mxRectangle width="220" height="30" as="alternateBounds" />
          </mxGeometry>
        </mxCell>
        <mxCell id="xxz0sU0E4NPgmf-TShmJ-122" value="transactions" style="shape=table;startSize=30;container=1;collapsible=1;childLayout=tableLayout;fixedRows=1;rowLines=0;fontStyle=1;align=center;resizeLast=1;" parent="1" vertex="1">
          <mxGeometry x="440" y="70" width="250" height="130" as="geometry" />
        </mxCell>
        <mxCell id="xxz0sU0E4NPgmf-TShmJ-123" value="" style="shape=partialRectangle;collapsible=0;dropTarget=0;pointerEvents=0;fillColor=none;points=[[0,0.5],[1,0.5]];portConstraint=eastwest;top=0;left=0;right=0;bottom=1;" parent="xxz0sU0E4NPgmf-TShmJ-122" vertex="1">
          <mxGeometry y="30" width="250" height="30" as="geometry" />
        </mxCell>
        <mxCell id="xxz0sU0E4NPgmf-TShmJ-124" value="PK" style="shape=partialRectangle;overflow=hidden;connectable=0;fillColor=none;top=0;left=0;bottom=0;right=0;fontStyle=1;" parent="xxz0sU0E4NPgmf-TShmJ-123" vertex="1">
          <mxGeometry width="30" height="30" as="geometry">
            <mxRectangle width="30" height="30" as="alternateBounds" />
          </mxGeometry>
        </mxCell>
        <mxCell id="xxz0sU0E4NPgmf-TShmJ-125" value="id int NOT NULL " style="shape=partialRectangle;overflow=hidden;connectable=0;fillColor=none;top=0;left=0;bottom=0;right=0;align=left;spacingLeft=6;fontStyle=5;" parent="xxz0sU0E4NPgmf-TShmJ-123" vertex="1">
          <mxGeometry x="30" width="220" height="30" as="geometry">
            <mxRectangle width="220" height="30" as="alternateBounds" />
          </mxGeometry>
        </mxCell>
        <mxCell id="xxz0sU0E4NPgmf-TShmJ-126" value="" style="shape=partialRectangle;collapsible=0;dropTarget=0;pointerEvents=0;fillColor=none;points=[[0,0.5],[1,0.5]];portConstraint=eastwest;top=0;left=0;right=0;bottom=0;" parent="xxz0sU0E4NPgmf-TShmJ-122" vertex="1">
          <mxGeometry y="60" width="250" height="30" as="geometry" />
        </mxCell>
        <mxCell id="xxz0sU0E4NPgmf-TShmJ-127" value="" style="shape=partialRectangle;overflow=hidden;connectable=0;fillColor=none;top=0;left=0;bottom=0;right=0;" parent="xxz0sU0E4NPgmf-TShmJ-126" vertex="1">
          <mxGeometry width="30" height="30" as="geometry">
            <mxRectangle width="30" height="30" as="alternateBounds" />
          </mxGeometry>
        </mxCell>
        <mxCell id="xxz0sU0E4NPgmf-TShmJ-128" value="invoice_id int NOT NULL" style="shape=partialRectangle;overflow=hidden;connectable=0;fillColor=none;top=0;left=0;bottom=0;right=0;align=left;spacingLeft=6;" parent="xxz0sU0E4NPgmf-TShmJ-126" vertex="1">
          <mxGeometry x="30" width="220" height="30" as="geometry">
            <mxRectangle width="220" height="30" as="alternateBounds" />
          </mxGeometry>
        </mxCell>
        <mxCell id="xxz0sU0E4NPgmf-TShmJ-132" value="" style="shape=partialRectangle;collapsible=0;dropTarget=0;pointerEvents=0;fillColor=none;points=[[0,0.5],[1,0.5]];portConstraint=eastwest;top=0;left=0;right=0;bottom=0;" parent="xxz0sU0E4NPgmf-TShmJ-122" vertex="1">
          <mxGeometry y="90" width="250" height="30" as="geometry" />
        </mxCell>
        <mxCell id="xxz0sU0E4NPgmf-TShmJ-133" value="" style="shape=partialRectangle;overflow=hidden;connectable=0;fillColor=none;top=0;left=0;bottom=0;right=0;" parent="xxz0sU0E4NPgmf-TShmJ-132" vertex="1">
          <mxGeometry width="30" height="30" as="geometry">
            <mxRectangle width="30" height="30" as="alternateBounds" />
          </mxGeometry>
        </mxCell>
        <mxCell id="xxz0sU0E4NPgmf-TShmJ-134" value="price int NOT NULL" style="shape=partialRectangle;overflow=hidden;connectable=0;fillColor=none;top=0;left=0;bottom=0;right=0;align=left;spacingLeft=6;" parent="xxz0sU0E4NPgmf-TShmJ-132" vertex="1">
          <mxGeometry x="30" width="220" height="30" as="geometry">
            <mxRectangle width="220" height="30" as="alternateBounds" />
          </mxGeometry>
        </mxCell>
        <mxCell id="xxz0sU0E4NPgmf-TShmJ-146" value="" style="edgeStyle=entityRelationEdgeStyle;fontSize=12;html=1;endArrow=ERzeroToMany;startArrow=ERmandOne;rounded=0;" parent="1" source="xxz0sU0E4NPgmf-TShmJ-101" target="xxz0sU0E4NPgmf-TShmJ-126" edge="1">
          <mxGeometry width="100" height="100" relative="1" as="geometry">
            <mxPoint x="390" y="385" as="sourcePoint" />
            <mxPoint x="460" y="625" as="targetPoint" />
          </mxGeometry>
        </mxCell>
        <mxCell id="xxz0sU0E4NPgmf-TShmJ-147" value="" style="edgeStyle=entityRelationEdgeStyle;fontSize=12;html=1;endArrow=ERzeroToMany;startArrow=ERmandOne;rounded=0;" parent="1" source="C-vyLk0tnHw3VtMMgP7b-24" target="xxz0sU0E4NPgmf-TShmJ-104" edge="1">
          <mxGeometry width="100" height="100" relative="1" as="geometry">
            <mxPoint x="390" y="125" as="sourcePoint" />
            <mxPoint x="450" y="155" as="targetPoint" />
          </mxGeometry>
        </mxCell>
        <mxCell id="xxz0sU0E4NPgmf-TShmJ-160" value="vouchers" style="shape=table;startSize=30;container=1;collapsible=1;childLayout=tableLayout;fixedRows=1;rowLines=0;fontStyle=1;align=center;resizeLast=1;" parent="1" vertex="1">
          <mxGeometry x="440" y="215" width="250" height="158" as="geometry" />
        </mxCell>
        <mxCell id="xxz0sU0E4NPgmf-TShmJ-161" value="" style="shape=partialRectangle;collapsible=0;dropTarget=0;pointerEvents=0;fillColor=none;points=[[0,0.5],[1,0.5]];portConstraint=eastwest;top=0;left=0;right=0;bottom=1;" parent="xxz0sU0E4NPgmf-TShmJ-160" vertex="1">
          <mxGeometry y="30" width="250" height="30" as="geometry" />
        </mxCell>
        <mxCell id="xxz0sU0E4NPgmf-TShmJ-162" value="PK" style="shape=partialRectangle;overflow=hidden;connectable=0;fillColor=none;top=0;left=0;bottom=0;right=0;fontStyle=1;" parent="xxz0sU0E4NPgmf-TShmJ-161" vertex="1">
          <mxGeometry width="30" height="30" as="geometry">
            <mxRectangle width="30" height="30" as="alternateBounds" />
          </mxGeometry>
        </mxCell>
        <mxCell id="xxz0sU0E4NPgmf-TShmJ-163" value="id int NOT NULL " style="shape=partialRectangle;overflow=hidden;connectable=0;fillColor=none;top=0;left=0;bottom=0;right=0;align=left;spacingLeft=6;fontStyle=5;" parent="xxz0sU0E4NPgmf-TShmJ-161" vertex="1">
          <mxGeometry x="30" width="220" height="30" as="geometry">
            <mxRectangle width="220" height="30" as="alternateBounds" />
          </mxGeometry>
        </mxCell>
        <mxCell id="xxz0sU0E4NPgmf-TShmJ-164" value="" style="shape=partialRectangle;collapsible=0;dropTarget=0;pointerEvents=0;fillColor=none;points=[[0,0.5],[1,0.5]];portConstraint=eastwest;top=0;left=0;right=0;bottom=0;" parent="xxz0sU0E4NPgmf-TShmJ-160" vertex="1">
          <mxGeometry y="60" width="250" height="30" as="geometry" />
        </mxCell>
        <mxCell id="xxz0sU0E4NPgmf-TShmJ-165" value="" style="shape=partialRectangle;overflow=hidden;connectable=0;fillColor=none;top=0;left=0;bottom=0;right=0;" parent="xxz0sU0E4NPgmf-TShmJ-164" vertex="1">
          <mxGeometry width="30" height="30" as="geometry">
            <mxRectangle width="30" height="30" as="alternateBounds" />
          </mxGeometry>
        </mxCell>
        <mxCell id="xxz0sU0E4NPgmf-TShmJ-166" value="name string NOT NULL" style="shape=partialRectangle;overflow=hidden;connectable=0;fillColor=none;top=0;left=0;bottom=0;right=0;align=left;spacingLeft=6;" parent="xxz0sU0E4NPgmf-TShmJ-164" vertex="1">
          <mxGeometry x="30" width="220" height="30" as="geometry">
            <mxRectangle width="220" height="30" as="alternateBounds" />
          </mxGeometry>
        </mxCell>
        <mxCell id="xxz0sU0E4NPgmf-TShmJ-167" value="" style="shape=partialRectangle;collapsible=0;dropTarget=0;pointerEvents=0;fillColor=none;points=[[0,0.5],[1,0.5]];portConstraint=eastwest;top=0;left=0;right=0;bottom=0;" parent="xxz0sU0E4NPgmf-TShmJ-160" vertex="1">
          <mxGeometry y="90" width="250" height="30" as="geometry" />
        </mxCell>
        <mxCell id="xxz0sU0E4NPgmf-TShmJ-168" value="" style="shape=partialRectangle;overflow=hidden;connectable=0;fillColor=none;top=0;left=0;bottom=0;right=0;" parent="xxz0sU0E4NPgmf-TShmJ-167" vertex="1">
          <mxGeometry width="30" height="30" as="geometry">
            <mxRectangle width="30" height="30" as="alternateBounds" />
          </mxGeometry>
        </mxCell>
        <mxCell id="xxz0sU0E4NPgmf-TShmJ-169" value="status string NOT NULL" style="shape=partialRectangle;overflow=hidden;connectable=0;fillColor=none;top=0;left=0;bottom=0;right=0;align=left;spacingLeft=6;" parent="xxz0sU0E4NPgmf-TShmJ-167" vertex="1">
          <mxGeometry x="30" width="220" height="30" as="geometry">
            <mxRectangle width="220" height="30" as="alternateBounds" />
          </mxGeometry>
        </mxCell>
        <mxCell id="xxz0sU0E4NPgmf-TShmJ-170" value="" style="shape=partialRectangle;collapsible=0;dropTarget=0;pointerEvents=0;fillColor=none;points=[[0,0.5],[1,0.5]];portConstraint=eastwest;top=0;left=0;right=0;bottom=0;" parent="xxz0sU0E4NPgmf-TShmJ-160" vertex="1">
          <mxGeometry y="120" width="250" height="30" as="geometry" />
        </mxCell>
        <mxCell id="xxz0sU0E4NPgmf-TShmJ-171" value="" style="shape=partialRectangle;overflow=hidden;connectable=0;fillColor=none;top=0;left=0;bottom=0;right=0;" parent="xxz0sU0E4NPgmf-TShmJ-170" vertex="1">
          <mxGeometry width="30" height="30" as="geometry">
            <mxRectangle width="30" height="30" as="alternateBounds" />
          </mxGeometry>
        </mxCell>
        <mxCell id="xxz0sU0E4NPgmf-TShmJ-172" value="voucher_code string NOT NULL" style="shape=partialRectangle;overflow=hidden;connectable=0;fillColor=none;top=0;left=0;bottom=0;right=0;align=left;spacingLeft=6;" parent="xxz0sU0E4NPgmf-TShmJ-170" vertex="1">
          <mxGeometry x="30" width="220" height="30" as="geometry">
            <mxRectangle width="220" height="30" as="alternateBounds" />
          </mxGeometry>
        </mxCell>
        <mxCell id="xxz0sU0E4NPgmf-TShmJ-173" value="gifts" style="shape=table;startSize=30;container=1;collapsible=1;childLayout=tableLayout;fixedRows=1;rowLines=0;fontStyle=1;align=center;resizeLast=1;" parent="1" vertex="1">
          <mxGeometry x="130" y="900" width="250" height="160" as="geometry" />
        </mxCell>
        <mxCell id="xxz0sU0E4NPgmf-TShmJ-174" value="" style="shape=partialRectangle;collapsible=0;dropTarget=0;pointerEvents=0;fillColor=none;points=[[0,0.5],[1,0.5]];portConstraint=eastwest;top=0;left=0;right=0;bottom=1;" parent="xxz0sU0E4NPgmf-TShmJ-173" vertex="1">
          <mxGeometry y="30" width="250" height="30" as="geometry" />
        </mxCell>
        <mxCell id="xxz0sU0E4NPgmf-TShmJ-175" value="PK" style="shape=partialRectangle;overflow=hidden;connectable=0;fillColor=none;top=0;left=0;bottom=0;right=0;fontStyle=1;" parent="xxz0sU0E4NPgmf-TShmJ-174" vertex="1">
          <mxGeometry width="30" height="30" as="geometry">
            <mxRectangle width="30" height="30" as="alternateBounds" />
          </mxGeometry>
        </mxCell>
        <mxCell id="xxz0sU0E4NPgmf-TShmJ-176" value="id int NOT NULL " style="shape=partialRectangle;overflow=hidden;connectable=0;fillColor=none;top=0;left=0;bottom=0;right=0;align=left;spacingLeft=6;fontStyle=5;" parent="xxz0sU0E4NPgmf-TShmJ-174" vertex="1">
          <mxGeometry x="30" width="220" height="30" as="geometry">
            <mxRectangle width="220" height="30" as="alternateBounds" />
          </mxGeometry>
        </mxCell>
        <mxCell id="xxz0sU0E4NPgmf-TShmJ-177" value="" style="shape=partialRectangle;collapsible=0;dropTarget=0;pointerEvents=0;fillColor=none;points=[[0,0.5],[1,0.5]];portConstraint=eastwest;top=0;left=0;right=0;bottom=0;" parent="xxz0sU0E4NPgmf-TShmJ-173" vertex="1">
          <mxGeometry y="60" width="250" height="30" as="geometry" />
        </mxCell>
        <mxCell id="xxz0sU0E4NPgmf-TShmJ-178" value="" style="shape=partialRectangle;overflow=hidden;connectable=0;fillColor=none;top=0;left=0;bottom=0;right=0;" parent="xxz0sU0E4NPgmf-TShmJ-177" vertex="1">
          <mxGeometry width="30" height="30" as="geometry">
            <mxRectangle width="30" height="30" as="alternateBounds" />
          </mxGeometry>
        </mxCell>
        <mxCell id="xxz0sU0E4NPgmf-TShmJ-179" value="name string NOT NULL" style="shape=partialRectangle;overflow=hidden;connectable=0;fillColor=none;top=0;left=0;bottom=0;right=0;align=left;spacingLeft=6;" parent="xxz0sU0E4NPgmf-TShmJ-177" vertex="1">
          <mxGeometry x="30" width="220" height="30" as="geometry">
            <mxRectangle width="220" height="30" as="alternateBounds" />
          </mxGeometry>
        </mxCell>
        <mxCell id="xxz0sU0E4NPgmf-TShmJ-180" value="" style="shape=partialRectangle;collapsible=0;dropTarget=0;pointerEvents=0;fillColor=none;points=[[0,0.5],[1,0.5]];portConstraint=eastwest;top=0;left=0;right=0;bottom=0;" parent="xxz0sU0E4NPgmf-TShmJ-173" vertex="1">
          <mxGeometry y="90" width="250" height="30" as="geometry" />
        </mxCell>
        <mxCell id="xxz0sU0E4NPgmf-TShmJ-181" value="" style="shape=partialRectangle;overflow=hidden;connectable=0;fillColor=none;top=0;left=0;bottom=0;right=0;" parent="xxz0sU0E4NPgmf-TShmJ-180" vertex="1">
          <mxGeometry width="30" height="30" as="geometry">
            <mxRectangle width="30" height="30" as="alternateBounds" />
          </mxGeometry>
        </mxCell>
        <mxCell id="xxz0sU0E4NPgmf-TShmJ-182" value="tracking_id" style="shape=partialRectangle;overflow=hidden;connectable=0;fillColor=none;top=0;left=0;bottom=0;right=0;align=left;spacingLeft=6;" parent="xxz0sU0E4NPgmf-TShmJ-180" vertex="1">
          <mxGeometry x="30" width="220" height="30" as="geometry">
            <mxRectangle width="220" height="30" as="alternateBounds" />
          </mxGeometry>
        </mxCell>
        <mxCell id="xxz0sU0E4NPgmf-TShmJ-183" value="" style="shape=partialRectangle;collapsible=0;dropTarget=0;pointerEvents=0;fillColor=none;points=[[0,0.5],[1,0.5]];portConstraint=eastwest;top=0;left=0;right=0;bottom=0;" parent="xxz0sU0E4NPgmf-TShmJ-173" vertex="1">
          <mxGeometry y="120" width="250" height="30" as="geometry" />
        </mxCell>
        <mxCell id="xxz0sU0E4NPgmf-TShmJ-184" value="" style="shape=partialRectangle;overflow=hidden;connectable=0;fillColor=none;top=0;left=0;bottom=0;right=0;" parent="xxz0sU0E4NPgmf-TShmJ-183" vertex="1">
          <mxGeometry width="30" height="30" as="geometry">
            <mxRectangle width="30" height="30" as="alternateBounds" />
          </mxGeometry>
        </mxCell>
        <mxCell id="xxz0sU0E4NPgmf-TShmJ-185" value="stock" style="shape=partialRectangle;overflow=hidden;connectable=0;fillColor=none;top=0;left=0;bottom=0;right=0;align=left;spacingLeft=6;" parent="xxz0sU0E4NPgmf-TShmJ-183" vertex="1">
          <mxGeometry x="30" width="220" height="30" as="geometry">
            <mxRectangle width="220" height="30" as="alternateBounds" />
          </mxGeometry>
        </mxCell>
        <mxCell id="xxz0sU0E4NPgmf-TShmJ-187" value="transactions_courses" style="shape=table;startSize=30;container=1;collapsible=1;childLayout=tableLayout;fixedRows=1;rowLines=0;fontStyle=1;align=center;resizeLast=1;" parent="1" vertex="1">
          <mxGeometry x="440" y="390" width="250" height="160" as="geometry" />
        </mxCell>
        <mxCell id="xxz0sU0E4NPgmf-TShmJ-188" value="" style="shape=partialRectangle;collapsible=0;dropTarget=0;pointerEvents=0;fillColor=none;points=[[0,0.5],[1,0.5]];portConstraint=eastwest;top=0;left=0;right=0;bottom=1;" parent="xxz0sU0E4NPgmf-TShmJ-187" vertex="1">
          <mxGeometry y="30" width="250" height="30" as="geometry" />
        </mxCell>
        <mxCell id="xxz0sU0E4NPgmf-TShmJ-189" value="PK" style="shape=partialRectangle;overflow=hidden;connectable=0;fillColor=none;top=0;left=0;bottom=0;right=0;fontStyle=1;" parent="xxz0sU0E4NPgmf-TShmJ-188" vertex="1">
          <mxGeometry width="30" height="30" as="geometry">
            <mxRectangle width="30" height="30" as="alternateBounds" />
          </mxGeometry>
        </mxCell>
        <mxCell id="xxz0sU0E4NPgmf-TShmJ-190" value="id int NOT NULL " style="shape=partialRectangle;overflow=hidden;connectable=0;fillColor=none;top=0;left=0;bottom=0;right=0;align=left;spacingLeft=6;fontStyle=5;" parent="xxz0sU0E4NPgmf-TShmJ-188" vertex="1">
          <mxGeometry x="30" width="220" height="30" as="geometry">
            <mxRectangle width="220" height="30" as="alternateBounds" />
          </mxGeometry>
        </mxCell>
        <mxCell id="xxz0sU0E4NPgmf-TShmJ-191" value="" style="shape=partialRectangle;collapsible=0;dropTarget=0;pointerEvents=0;fillColor=none;points=[[0,0.5],[1,0.5]];portConstraint=eastwest;top=0;left=0;right=0;bottom=0;" parent="xxz0sU0E4NPgmf-TShmJ-187" vertex="1">
          <mxGeometry y="60" width="250" height="30" as="geometry" />
        </mxCell>
        <mxCell id="xxz0sU0E4NPgmf-TShmJ-192" value="" style="shape=partialRectangle;overflow=hidden;connectable=0;fillColor=none;top=0;left=0;bottom=0;right=0;" parent="xxz0sU0E4NPgmf-TShmJ-191" vertex="1">
          <mxGeometry width="30" height="30" as="geometry">
            <mxRectangle width="30" height="30" as="alternateBounds" />
          </mxGeometry>
        </mxCell>
        <mxCell id="xxz0sU0E4NPgmf-TShmJ-193" value="transaction_id int NOT NULL" style="shape=partialRectangle;overflow=hidden;connectable=0;fillColor=none;top=0;left=0;bottom=0;right=0;align=left;spacingLeft=6;" parent="xxz0sU0E4NPgmf-TShmJ-191" vertex="1">
          <mxGeometry x="30" width="220" height="30" as="geometry">
            <mxRectangle width="220" height="30" as="alternateBounds" />
          </mxGeometry>
        </mxCell>
        <mxCell id="xxz0sU0E4NPgmf-TShmJ-194" value="" style="shape=partialRectangle;collapsible=0;dropTarget=0;pointerEvents=0;fillColor=none;points=[[0,0.5],[1,0.5]];portConstraint=eastwest;top=0;left=0;right=0;bottom=0;" parent="xxz0sU0E4NPgmf-TShmJ-187" vertex="1">
          <mxGeometry y="90" width="250" height="30" as="geometry" />
        </mxCell>
        <mxCell id="xxz0sU0E4NPgmf-TShmJ-195" value="" style="shape=partialRectangle;overflow=hidden;connectable=0;fillColor=none;top=0;left=0;bottom=0;right=0;" parent="xxz0sU0E4NPgmf-TShmJ-194" vertex="1">
          <mxGeometry width="30" height="30" as="geometry">
            <mxRectangle width="30" height="30" as="alternateBounds" />
          </mxGeometry>
        </mxCell>
        <mxCell id="xxz0sU0E4NPgmf-TShmJ-196" value="course_id int NOT NULL" style="shape=partialRectangle;overflow=hidden;connectable=0;fillColor=none;top=0;left=0;bottom=0;right=0;align=left;spacingLeft=6;" parent="xxz0sU0E4NPgmf-TShmJ-194" vertex="1">
          <mxGeometry x="30" width="220" height="30" as="geometry">
            <mxRectangle width="220" height="30" as="alternateBounds" />
          </mxGeometry>
        </mxCell>
        <mxCell id="xxz0sU0E4NPgmf-TShmJ-197" value="" style="shape=partialRectangle;collapsible=0;dropTarget=0;pointerEvents=0;fillColor=none;points=[[0,0.5],[1,0.5]];portConstraint=eastwest;top=0;left=0;right=0;bottom=0;" parent="xxz0sU0E4NPgmf-TShmJ-187" vertex="1">
          <mxGeometry y="120" width="250" height="30" as="geometry" />
        </mxCell>
        <mxCell id="xxz0sU0E4NPgmf-TShmJ-198" value="" style="shape=partialRectangle;overflow=hidden;connectable=0;fillColor=none;top=0;left=0;bottom=0;right=0;" parent="xxz0sU0E4NPgmf-TShmJ-197" vertex="1">
          <mxGeometry width="30" height="30" as="geometry">
            <mxRectangle width="30" height="30" as="alternateBounds" />
          </mxGeometry>
        </mxCell>
        <mxCell id="xxz0sU0E4NPgmf-TShmJ-199" value="price int NOT NULL" style="shape=partialRectangle;overflow=hidden;connectable=0;fillColor=none;top=0;left=0;bottom=0;right=0;align=left;spacingLeft=6;" parent="xxz0sU0E4NPgmf-TShmJ-197" vertex="1">
          <mxGeometry x="30" width="220" height="30" as="geometry">
            <mxRectangle width="220" height="30" as="alternateBounds" />
          </mxGeometry>
        </mxCell>
        <mxCell id="xxz0sU0E4NPgmf-TShmJ-202" value="" style="edgeStyle=elbowEdgeStyle;fontSize=12;html=1;endArrow=ERzeroToMany;startArrow=ERmandOne;rounded=0;" parent="1" source="xxz0sU0E4NPgmf-TShmJ-123" target="xxz0sU0E4NPgmf-TShmJ-191" edge="1">
          <mxGeometry width="100" height="100" relative="1" as="geometry">
            <mxPoint x="390" y="895" as="sourcePoint" />
            <mxPoint x="820" y="690" as="targetPoint" />
            <Array as="points">
              <mxPoint x="720" y="260" />
              <mxPoint x="430" y="720" />
              <mxPoint x="490" y="730" />
            </Array>
          </mxGeometry>
        </mxCell>
        <mxCell id="xxz0sU0E4NPgmf-TShmJ-208" value="" style="edgeStyle=elbowEdgeStyle;fontSize=12;html=1;endArrow=ERzeroToMany;startArrow=ERmandOne;rounded=0;" parent="1" source="C-vyLk0tnHw3VtMMgP7b-24" target="xxz0sU0E4NPgmf-TShmJ-205" edge="1">
          <mxGeometry width="100" height="100" relative="1" as="geometry">
            <mxPoint x="390" y="385" as="sourcePoint" />
            <mxPoint x="450" y="365" as="targetPoint" />
            <Array as="points">
              <mxPoint x="-220" y="310" />
              <mxPoint x="-210" y="420" />
              <mxPoint x="-210" y="400" />
              <mxPoint x="-240" y="410" />
              <mxPoint x="-200" y="340" />
            </Array>
          </mxGeometry>
        </mxCell>
        <mxCell id="xxz0sU0E4NPgmf-TShmJ-210" value="gift_tracking" style="shape=table;startSize=30;container=1;collapsible=1;childLayout=tableLayout;fixedRows=1;rowLines=0;fontStyle=1;align=center;resizeLast=1;" parent="1" vertex="1">
          <mxGeometry x="-180" y="980" width="250" height="160" as="geometry" />
        </mxCell>
        <mxCell id="xxz0sU0E4NPgmf-TShmJ-211" value="" style="shape=partialRectangle;collapsible=0;dropTarget=0;pointerEvents=0;fillColor=none;points=[[0,0.5],[1,0.5]];portConstraint=eastwest;top=0;left=0;right=0;bottom=1;" parent="xxz0sU0E4NPgmf-TShmJ-210" vertex="1">
          <mxGeometry y="30" width="250" height="30" as="geometry" />
        </mxCell>
        <mxCell id="xxz0sU0E4NPgmf-TShmJ-212" value="PK" style="shape=partialRectangle;overflow=hidden;connectable=0;fillColor=none;top=0;left=0;bottom=0;right=0;fontStyle=1;" parent="xxz0sU0E4NPgmf-TShmJ-211" vertex="1">
          <mxGeometry width="30" height="30" as="geometry">
            <mxRectangle width="30" height="30" as="alternateBounds" />
          </mxGeometry>
        </mxCell>
        <mxCell id="xxz0sU0E4NPgmf-TShmJ-213" value="id int NOT NULL " style="shape=partialRectangle;overflow=hidden;connectable=0;fillColor=none;top=0;left=0;bottom=0;right=0;align=left;spacingLeft=6;fontStyle=5;" parent="xxz0sU0E4NPgmf-TShmJ-211" vertex="1">
          <mxGeometry x="30" width="220" height="30" as="geometry">
            <mxRectangle width="220" height="30" as="alternateBounds" />
          </mxGeometry>
        </mxCell>
        <mxCell id="xxz0sU0E4NPgmf-TShmJ-214" value="" style="shape=partialRectangle;collapsible=0;dropTarget=0;pointerEvents=0;fillColor=none;points=[[0,0.5],[1,0.5]];portConstraint=eastwest;top=0;left=0;right=0;bottom=0;" parent="xxz0sU0E4NPgmf-TShmJ-210" vertex="1">
          <mxGeometry y="60" width="250" height="30" as="geometry" />
        </mxCell>
        <mxCell id="xxz0sU0E4NPgmf-TShmJ-215" value="" style="shape=partialRectangle;overflow=hidden;connectable=0;fillColor=none;top=0;left=0;bottom=0;right=0;" parent="xxz0sU0E4NPgmf-TShmJ-214" vertex="1">
          <mxGeometry width="30" height="30" as="geometry">
            <mxRectangle width="30" height="30" as="alternateBounds" />
          </mxGeometry>
        </mxCell>
        <mxCell id="xxz0sU0E4NPgmf-TShmJ-216" value="gift_id string NOT NULL" style="shape=partialRectangle;overflow=hidden;connectable=0;fillColor=none;top=0;left=0;bottom=0;right=0;align=left;spacingLeft=6;" parent="xxz0sU0E4NPgmf-TShmJ-214" vertex="1">
          <mxGeometry x="30" width="220" height="30" as="geometry">
            <mxRectangle width="220" height="30" as="alternateBounds" />
          </mxGeometry>
        </mxCell>
        <mxCell id="xxz0sU0E4NPgmf-TShmJ-217" value="" style="shape=partialRectangle;collapsible=0;dropTarget=0;pointerEvents=0;fillColor=none;points=[[0,0.5],[1,0.5]];portConstraint=eastwest;top=0;left=0;right=0;bottom=0;" parent="xxz0sU0E4NPgmf-TShmJ-210" vertex="1">
          <mxGeometry y="90" width="250" height="30" as="geometry" />
        </mxCell>
        <mxCell id="xxz0sU0E4NPgmf-TShmJ-218" value="" style="shape=partialRectangle;overflow=hidden;connectable=0;fillColor=none;top=0;left=0;bottom=0;right=0;" parent="xxz0sU0E4NPgmf-TShmJ-217" vertex="1">
          <mxGeometry width="30" height="30" as="geometry">
            <mxRectangle width="30" height="30" as="alternateBounds" />
          </mxGeometry>
        </mxCell>
        <mxCell id="xxz0sU0E4NPgmf-TShmJ-219" value="date string NOT NULL" style="shape=partialRectangle;overflow=hidden;connectable=0;fillColor=none;top=0;left=0;bottom=0;right=0;align=left;spacingLeft=6;" parent="xxz0sU0E4NPgmf-TShmJ-217" vertex="1">
          <mxGeometry x="30" width="220" height="30" as="geometry">
            <mxRectangle width="220" height="30" as="alternateBounds" />
          </mxGeometry>
        </mxCell>
        <mxCell id="xxz0sU0E4NPgmf-TShmJ-220" value="" style="shape=partialRectangle;collapsible=0;dropTarget=0;pointerEvents=0;fillColor=none;points=[[0,0.5],[1,0.5]];portConstraint=eastwest;top=0;left=0;right=0;bottom=0;" parent="xxz0sU0E4NPgmf-TShmJ-210" vertex="1">
          <mxGeometry y="120" width="250" height="30" as="geometry" />
        </mxCell>
        <mxCell id="xxz0sU0E4NPgmf-TShmJ-221" value="" style="shape=partialRectangle;overflow=hidden;connectable=0;fillColor=none;top=0;left=0;bottom=0;right=0;" parent="xxz0sU0E4NPgmf-TShmJ-220" vertex="1">
          <mxGeometry width="30" height="30" as="geometry">
            <mxRectangle width="30" height="30" as="alternateBounds" />
          </mxGeometry>
        </mxCell>
        <mxCell id="xxz0sU0E4NPgmf-TShmJ-222" value="delivery_status" style="shape=partialRectangle;overflow=hidden;connectable=0;fillColor=none;top=0;left=0;bottom=0;right=0;align=left;spacingLeft=6;" parent="xxz0sU0E4NPgmf-TShmJ-220" vertex="1">
          <mxGeometry x="30" width="220" height="30" as="geometry">
            <mxRectangle width="220" height="30" as="alternateBounds" />
          </mxGeometry>
        </mxCell>
        <mxCell id="xxz0sU0E4NPgmf-TShmJ-225" value="" style="edgeStyle=elbowEdgeStyle;fontSize=12;html=1;endArrow=ERzeroToMany;startArrow=ERmandOne;rounded=0;" parent="1" source="C-vyLk0tnHw3VtMMgP7b-24" target="xxz0sU0E4NPgmf-TShmJ-246" edge="1">
          <mxGeometry width="100" height="100" relative="1" as="geometry">
            <mxPoint x="-170" y="125" as="sourcePoint" />
            <mxPoint x="-370" y="810" as="targetPoint" />
            <Array as="points">
              <mxPoint x="-240" y="510" />
              <mxPoint x="-340" y="470" />
              <mxPoint x="-200" y="410" />
              <mxPoint x="-230" y="420" />
              <mxPoint x="-190" y="350" />
            </Array>
          </mxGeometry>
        </mxCell>
        <mxCell id="xxz0sU0E4NPgmf-TShmJ-227" value="course_bookmarks" style="shape=table;startSize=30;container=1;collapsible=1;childLayout=tableLayout;fixedRows=1;rowLines=0;fontStyle=1;align=center;resizeLast=1;" parent="1" vertex="1">
          <mxGeometry x="130" y="330" width="250" height="160" as="geometry" />
        </mxCell>
        <mxCell id="xxz0sU0E4NPgmf-TShmJ-228" value="" style="shape=partialRectangle;collapsible=0;dropTarget=0;pointerEvents=0;fillColor=none;points=[[0,0.5],[1,0.5]];portConstraint=eastwest;top=0;left=0;right=0;bottom=1;" parent="xxz0sU0E4NPgmf-TShmJ-227" vertex="1">
          <mxGeometry y="30" width="250" height="30" as="geometry" />
        </mxCell>
        <mxCell id="xxz0sU0E4NPgmf-TShmJ-229" value="PK" style="shape=partialRectangle;overflow=hidden;connectable=0;fillColor=none;top=0;left=0;bottom=0;right=0;fontStyle=1;" parent="xxz0sU0E4NPgmf-TShmJ-228" vertex="1">
          <mxGeometry width="30" height="30" as="geometry">
            <mxRectangle width="30" height="30" as="alternateBounds" />
          </mxGeometry>
        </mxCell>
        <mxCell id="xxz0sU0E4NPgmf-TShmJ-230" value="id int NOT NULL " style="shape=partialRectangle;overflow=hidden;connectable=0;fillColor=none;top=0;left=0;bottom=0;right=0;align=left;spacingLeft=6;fontStyle=5;" parent="xxz0sU0E4NPgmf-TShmJ-228" vertex="1">
          <mxGeometry x="30" width="220" height="30" as="geometry">
            <mxRectangle width="220" height="30" as="alternateBounds" />
          </mxGeometry>
        </mxCell>
        <mxCell id="xxz0sU0E4NPgmf-TShmJ-231" value="" style="shape=partialRectangle;collapsible=0;dropTarget=0;pointerEvents=0;fillColor=none;points=[[0,0.5],[1,0.5]];portConstraint=eastwest;top=0;left=0;right=0;bottom=0;" parent="xxz0sU0E4NPgmf-TShmJ-227" vertex="1">
          <mxGeometry y="60" width="250" height="30" as="geometry" />
        </mxCell>
        <mxCell id="xxz0sU0E4NPgmf-TShmJ-232" value="" style="shape=partialRectangle;overflow=hidden;connectable=0;fillColor=none;top=0;left=0;bottom=0;right=0;" parent="xxz0sU0E4NPgmf-TShmJ-231" vertex="1">
          <mxGeometry width="30" height="30" as="geometry">
            <mxRectangle width="30" height="30" as="alternateBounds" />
          </mxGeometry>
        </mxCell>
        <mxCell id="xxz0sU0E4NPgmf-TShmJ-233" value="course_id int NOT NULL" style="shape=partialRectangle;overflow=hidden;connectable=0;fillColor=none;top=0;left=0;bottom=0;right=0;align=left;spacingLeft=6;" parent="xxz0sU0E4NPgmf-TShmJ-231" vertex="1">
          <mxGeometry x="30" width="220" height="30" as="geometry">
            <mxRectangle width="220" height="30" as="alternateBounds" />
          </mxGeometry>
        </mxCell>
        <mxCell id="xxz0sU0E4NPgmf-TShmJ-234" value="" style="shape=partialRectangle;collapsible=0;dropTarget=0;pointerEvents=0;fillColor=none;points=[[0,0.5],[1,0.5]];portConstraint=eastwest;top=0;left=0;right=0;bottom=0;" parent="xxz0sU0E4NPgmf-TShmJ-227" vertex="1">
          <mxGeometry y="90" width="250" height="30" as="geometry" />
        </mxCell>
        <mxCell id="xxz0sU0E4NPgmf-TShmJ-235" value="" style="shape=partialRectangle;overflow=hidden;connectable=0;fillColor=none;top=0;left=0;bottom=0;right=0;" parent="xxz0sU0E4NPgmf-TShmJ-234" vertex="1">
          <mxGeometry width="30" height="30" as="geometry">
            <mxRectangle width="30" height="30" as="alternateBounds" />
          </mxGeometry>
        </mxCell>
        <mxCell id="xxz0sU0E4NPgmf-TShmJ-236" value="user_id int NOT NULL" style="shape=partialRectangle;overflow=hidden;connectable=0;fillColor=none;top=0;left=0;bottom=0;right=0;align=left;spacingLeft=6;" parent="xxz0sU0E4NPgmf-TShmJ-234" vertex="1">
          <mxGeometry x="30" width="220" height="30" as="geometry">
            <mxRectangle width="220" height="30" as="alternateBounds" />
          </mxGeometry>
        </mxCell>
        <mxCell id="xxz0sU0E4NPgmf-TShmJ-237" value="" style="shape=partialRectangle;collapsible=0;dropTarget=0;pointerEvents=0;fillColor=none;points=[[0,0.5],[1,0.5]];portConstraint=eastwest;top=0;left=0;right=0;bottom=0;" parent="xxz0sU0E4NPgmf-TShmJ-227" vertex="1">
          <mxGeometry y="120" width="250" height="30" as="geometry" />
        </mxCell>
        <mxCell id="xxz0sU0E4NPgmf-TShmJ-238" value="" style="shape=partialRectangle;overflow=hidden;connectable=0;fillColor=none;top=0;left=0;bottom=0;right=0;" parent="xxz0sU0E4NPgmf-TShmJ-237" vertex="1">
          <mxGeometry width="30" height="30" as="geometry">
            <mxRectangle width="30" height="30" as="alternateBounds" />
          </mxGeometry>
        </mxCell>
        <mxCell id="xxz0sU0E4NPgmf-TShmJ-239" value="date int NOT NULL" style="shape=partialRectangle;overflow=hidden;connectable=0;fillColor=none;top=0;left=0;bottom=0;right=0;align=left;spacingLeft=6;" parent="xxz0sU0E4NPgmf-TShmJ-237" vertex="1">
          <mxGeometry x="30" width="220" height="30" as="geometry">
            <mxRectangle width="220" height="30" as="alternateBounds" />
          </mxGeometry>
        </mxCell>
        <mxCell id="xxz0sU0E4NPgmf-TShmJ-241" value="" style="edgeStyle=entityRelationEdgeStyle;fontSize=12;html=1;endArrow=ERzeroToOne;startArrow=ERmandOne;rounded=0;" parent="1" source="xxz0sU0E4NPgmf-TShmJ-116" target="xxz0sU0E4NPgmf-TShmJ-161" edge="1">
          <mxGeometry width="100" height="100" relative="1" as="geometry">
            <mxPoint x="80" y="1065" as="sourcePoint" />
            <mxPoint x="80" y="855" as="targetPoint" />
          </mxGeometry>
        </mxCell>
        <mxCell id="xxz0sU0E4NPgmf-TShmJ-242" value="gifts_users" style="shape=table;startSize=30;container=1;collapsible=1;childLayout=tableLayout;fixedRows=1;rowLines=0;fontStyle=1;align=center;resizeLast=1;" parent="1" vertex="1">
          <mxGeometry x="-180" y="800" width="250" height="160" as="geometry" />
        </mxCell>
        <mxCell id="xxz0sU0E4NPgmf-TShmJ-243" value="" style="shape=partialRectangle;collapsible=0;dropTarget=0;pointerEvents=0;fillColor=none;points=[[0,0.5],[1,0.5]];portConstraint=eastwest;top=0;left=0;right=0;bottom=1;" parent="xxz0sU0E4NPgmf-TShmJ-242" vertex="1">
          <mxGeometry y="30" width="250" height="30" as="geometry" />
        </mxCell>
        <mxCell id="xxz0sU0E4NPgmf-TShmJ-244" value="PK" style="shape=partialRectangle;overflow=hidden;connectable=0;fillColor=none;top=0;left=0;bottom=0;right=0;fontStyle=1;" parent="xxz0sU0E4NPgmf-TShmJ-243" vertex="1">
          <mxGeometry width="30" height="30" as="geometry">
            <mxRectangle width="30" height="30" as="alternateBounds" />
          </mxGeometry>
        </mxCell>
        <mxCell id="xxz0sU0E4NPgmf-TShmJ-245" value="id int NOT NULL " style="shape=partialRectangle;overflow=hidden;connectable=0;fillColor=none;top=0;left=0;bottom=0;right=0;align=left;spacingLeft=6;fontStyle=5;" parent="xxz0sU0E4NPgmf-TShmJ-243" vertex="1">
          <mxGeometry x="30" width="220" height="30" as="geometry">
            <mxRectangle width="220" height="30" as="alternateBounds" />
          </mxGeometry>
        </mxCell>
        <mxCell id="xxz0sU0E4NPgmf-TShmJ-246" value="" style="shape=partialRectangle;collapsible=0;dropTarget=0;pointerEvents=0;fillColor=none;points=[[0,0.5],[1,0.5]];portConstraint=eastwest;top=0;left=0;right=0;bottom=0;" parent="xxz0sU0E4NPgmf-TShmJ-242" vertex="1">
          <mxGeometry y="60" width="250" height="30" as="geometry" />
        </mxCell>
        <mxCell id="xxz0sU0E4NPgmf-TShmJ-247" value="" style="shape=partialRectangle;overflow=hidden;connectable=0;fillColor=none;top=0;left=0;bottom=0;right=0;" parent="xxz0sU0E4NPgmf-TShmJ-246" vertex="1">
          <mxGeometry width="30" height="30" as="geometry">
            <mxRectangle width="30" height="30" as="alternateBounds" />
          </mxGeometry>
        </mxCell>
        <mxCell id="xxz0sU0E4NPgmf-TShmJ-248" value="user_id string NOT NULL" style="shape=partialRectangle;overflow=hidden;connectable=0;fillColor=none;top=0;left=0;bottom=0;right=0;align=left;spacingLeft=6;" parent="xxz0sU0E4NPgmf-TShmJ-246" vertex="1">
          <mxGeometry x="30" width="220" height="30" as="geometry">
            <mxRectangle width="220" height="30" as="alternateBounds" />
          </mxGeometry>
        </mxCell>
        <mxCell id="xxz0sU0E4NPgmf-TShmJ-252" value="" style="shape=partialRectangle;collapsible=0;dropTarget=0;pointerEvents=0;fillColor=none;points=[[0,0.5],[1,0.5]];portConstraint=eastwest;top=0;left=0;right=0;bottom=0;" parent="xxz0sU0E4NPgmf-TShmJ-242" vertex="1">
          <mxGeometry y="90" width="250" height="30" as="geometry" />
        </mxCell>
        <mxCell id="xxz0sU0E4NPgmf-TShmJ-253" value="" style="shape=partialRectangle;overflow=hidden;connectable=0;fillColor=none;top=0;left=0;bottom=0;right=0;" parent="xxz0sU0E4NPgmf-TShmJ-252" vertex="1">
          <mxGeometry width="30" height="30" as="geometry">
            <mxRectangle width="30" height="30" as="alternateBounds" />
          </mxGeometry>
        </mxCell>
        <mxCell id="xxz0sU0E4NPgmf-TShmJ-254" value="gift_id" style="shape=partialRectangle;overflow=hidden;connectable=0;fillColor=none;top=0;left=0;bottom=0;right=0;align=left;spacingLeft=6;" parent="xxz0sU0E4NPgmf-TShmJ-252" vertex="1">
          <mxGeometry x="30" width="220" height="30" as="geometry">
            <mxRectangle width="220" height="30" as="alternateBounds" />
          </mxGeometry>
        </mxCell>
        <mxCell id="xxz0sU0E4NPgmf-TShmJ-249" value="" style="shape=partialRectangle;collapsible=0;dropTarget=0;pointerEvents=0;fillColor=none;points=[[0,0.5],[1,0.5]];portConstraint=eastwest;top=0;left=0;right=0;bottom=0;" parent="xxz0sU0E4NPgmf-TShmJ-242" vertex="1">
          <mxGeometry y="120" width="250" height="30" as="geometry" />
        </mxCell>
        <mxCell id="xxz0sU0E4NPgmf-TShmJ-250" value="" style="shape=partialRectangle;overflow=hidden;connectable=0;fillColor=none;top=0;left=0;bottom=0;right=0;" parent="xxz0sU0E4NPgmf-TShmJ-249" vertex="1">
          <mxGeometry width="30" height="30" as="geometry">
            <mxRectangle width="30" height="30" as="alternateBounds" />
          </mxGeometry>
        </mxCell>
        <mxCell id="xxz0sU0E4NPgmf-TShmJ-251" value="gift_tracking_id" style="shape=partialRectangle;overflow=hidden;connectable=0;fillColor=none;top=0;left=0;bottom=0;right=0;align=left;spacingLeft=6;" parent="xxz0sU0E4NPgmf-TShmJ-249" vertex="1">
          <mxGeometry x="30" width="220" height="30" as="geometry">
            <mxRectangle width="220" height="30" as="alternateBounds" />
          </mxGeometry>
        </mxCell>
        <mxCell id="xxz0sU0E4NPgmf-TShmJ-257" value="" style="edgeStyle=elbowEdgeStyle;fontSize=12;html=1;endArrow=ERmandOne;startArrow=ERmandOne;rounded=0;" parent="1" source="xxz0sU0E4NPgmf-TShmJ-211" target="xxz0sU0E4NPgmf-TShmJ-249" edge="1">
          <mxGeometry width="100" height="100" relative="1" as="geometry">
            <mxPoint x="60" y="1180" as="sourcePoint" />
            <mxPoint x="160" y="1080" as="targetPoint" />
            <Array as="points">
              <mxPoint x="90" y="980" />
            </Array>
          </mxGeometry>
        </mxCell>
        <mxCell id="xxz0sU0E4NPgmf-TShmJ-258" value="carts" style="shape=table;startSize=30;container=1;collapsible=1;childLayout=tableLayout;fixedRows=1;rowLines=0;fontStyle=1;align=center;resizeLast=1;" parent="1" vertex="1">
          <mxGeometry x="-180" y="430" width="250" height="160" as="geometry" />
        </mxCell>
        <mxCell id="xxz0sU0E4NPgmf-TShmJ-259" value="" style="shape=partialRectangle;collapsible=0;dropTarget=0;pointerEvents=0;fillColor=none;points=[[0,0.5],[1,0.5]];portConstraint=eastwest;top=0;left=0;right=0;bottom=1;" parent="xxz0sU0E4NPgmf-TShmJ-258" vertex="1">
          <mxGeometry y="30" width="250" height="30" as="geometry" />
        </mxCell>
        <mxCell id="xxz0sU0E4NPgmf-TShmJ-260" value="PK" style="shape=partialRectangle;overflow=hidden;connectable=0;fillColor=none;top=0;left=0;bottom=0;right=0;fontStyle=1;" parent="xxz0sU0E4NPgmf-TShmJ-259" vertex="1">
          <mxGeometry width="30" height="30" as="geometry">
            <mxRectangle width="30" height="30" as="alternateBounds" />
          </mxGeometry>
        </mxCell>
        <mxCell id="xxz0sU0E4NPgmf-TShmJ-261" value="id int NOT NULL " style="shape=partialRectangle;overflow=hidden;connectable=0;fillColor=none;top=0;left=0;bottom=0;right=0;align=left;spacingLeft=6;fontStyle=5;" parent="xxz0sU0E4NPgmf-TShmJ-259" vertex="1">
          <mxGeometry x="30" width="220" height="30" as="geometry">
            <mxRectangle width="220" height="30" as="alternateBounds" />
          </mxGeometry>
        </mxCell>
        <mxCell id="xxz0sU0E4NPgmf-TShmJ-262" value="" style="shape=partialRectangle;collapsible=0;dropTarget=0;pointerEvents=0;fillColor=none;points=[[0,0.5],[1,0.5]];portConstraint=eastwest;top=0;left=0;right=0;bottom=0;" parent="xxz0sU0E4NPgmf-TShmJ-258" vertex="1">
          <mxGeometry y="60" width="250" height="30" as="geometry" />
        </mxCell>
        <mxCell id="xxz0sU0E4NPgmf-TShmJ-263" value="" style="shape=partialRectangle;overflow=hidden;connectable=0;fillColor=none;top=0;left=0;bottom=0;right=0;" parent="xxz0sU0E4NPgmf-TShmJ-262" vertex="1">
          <mxGeometry width="30" height="30" as="geometry">
            <mxRectangle width="30" height="30" as="alternateBounds" />
          </mxGeometry>
        </mxCell>
        <mxCell id="xxz0sU0E4NPgmf-TShmJ-264" value="user_id string NOT NULL" style="shape=partialRectangle;overflow=hidden;connectable=0;fillColor=none;top=0;left=0;bottom=0;right=0;align=left;spacingLeft=6;" parent="xxz0sU0E4NPgmf-TShmJ-262" vertex="1">
          <mxGeometry x="30" width="220" height="30" as="geometry">
            <mxRectangle width="220" height="30" as="alternateBounds" />
          </mxGeometry>
        </mxCell>
        <mxCell id="xxz0sU0E4NPgmf-TShmJ-265" value="" style="shape=partialRectangle;collapsible=0;dropTarget=0;pointerEvents=0;fillColor=none;points=[[0,0.5],[1,0.5]];portConstraint=eastwest;top=0;left=0;right=0;bottom=0;" parent="xxz0sU0E4NPgmf-TShmJ-258" vertex="1">
          <mxGeometry y="90" width="250" height="30" as="geometry" />
        </mxCell>
        <mxCell id="xxz0sU0E4NPgmf-TShmJ-266" value="" style="shape=partialRectangle;overflow=hidden;connectable=0;fillColor=none;top=0;left=0;bottom=0;right=0;" parent="xxz0sU0E4NPgmf-TShmJ-265" vertex="1">
          <mxGeometry width="30" height="30" as="geometry">
            <mxRectangle width="30" height="30" as="alternateBounds" />
          </mxGeometry>
        </mxCell>
        <mxCell id="xxz0sU0E4NPgmf-TShmJ-267" value="courses_id string NOT NULL" style="shape=partialRectangle;overflow=hidden;connectable=0;fillColor=none;top=0;left=0;bottom=0;right=0;align=left;spacingLeft=6;" parent="xxz0sU0E4NPgmf-TShmJ-265" vertex="1">
          <mxGeometry x="30" width="220" height="30" as="geometry">
            <mxRectangle width="220" height="30" as="alternateBounds" />
          </mxGeometry>
        </mxCell>
        <mxCell id="xxz0sU0E4NPgmf-TShmJ-268" value="" style="shape=partialRectangle;collapsible=0;dropTarget=0;pointerEvents=0;fillColor=none;points=[[0,0.5],[1,0.5]];portConstraint=eastwest;top=0;left=0;right=0;bottom=0;" parent="xxz0sU0E4NPgmf-TShmJ-258" vertex="1">
          <mxGeometry y="120" width="250" height="30" as="geometry" />
        </mxCell>
        <mxCell id="xxz0sU0E4NPgmf-TShmJ-269" value="" style="shape=partialRectangle;overflow=hidden;connectable=0;fillColor=none;top=0;left=0;bottom=0;right=0;" parent="xxz0sU0E4NPgmf-TShmJ-268" vertex="1">
          <mxGeometry width="30" height="30" as="geometry">
            <mxRectangle width="30" height="30" as="alternateBounds" />
          </mxGeometry>
        </mxCell>
        <mxCell id="xxz0sU0E4NPgmf-TShmJ-270" value="description" style="shape=partialRectangle;overflow=hidden;connectable=0;fillColor=none;top=0;left=0;bottom=0;right=0;align=left;spacingLeft=6;" parent="xxz0sU0E4NPgmf-TShmJ-268" vertex="1">
          <mxGeometry x="30" width="220" height="30" as="geometry">
            <mxRectangle width="220" height="30" as="alternateBounds" />
          </mxGeometry>
        </mxCell>
        <mxCell id="xxz0sU0E4NPgmf-TShmJ-272" value="" style="edgeStyle=elbowEdgeStyle;fontSize=12;html=1;endArrow=ERzeroToMany;startArrow=ERmandOne;rounded=0;" parent="1" source="xxz0sU0E4NPgmf-TShmJ-94" target="xxz0sU0E4NPgmf-TShmJ-56" edge="1">
          <mxGeometry width="100" height="100" relative="1" as="geometry">
            <mxPoint x="390" y="585" as="sourcePoint" />
            <mxPoint x="450" y="515" as="targetPoint" />
          </mxGeometry>
        </mxCell>
        <mxCell id="xxz0sU0E4NPgmf-TShmJ-273" value="" style="edgeStyle=elbowEdgeStyle;fontSize=12;html=1;endArrow=ERzeroToMany;startArrow=ERmandOne;rounded=0;" parent="1" source="xxz0sU0E4NPgmf-TShmJ-53" target="xxz0sU0E4NPgmf-TShmJ-231" edge="1">
          <mxGeometry width="100" height="100" relative="1" as="geometry">
            <mxPoint x="390" y="565" as="sourcePoint" />
            <mxPoint x="450" y="515" as="targetPoint" />
            <Array as="points">
              <mxPoint x="400" y="480" />
            </Array>
          </mxGeometry>
        </mxCell>
        <mxCell id="xxz0sU0E4NPgmf-TShmJ-275" value="" style="edgeStyle=elbowEdgeStyle;fontSize=12;html=1;endArrow=ERzeroToMany;startArrow=ERmandOne;rounded=0;" parent="1" source="C-vyLk0tnHw3VtMMgP7b-24" target="xxz0sU0E4NPgmf-TShmJ-234" edge="1">
          <mxGeometry width="100" height="100" relative="1" as="geometry">
            <mxPoint x="390" y="565" as="sourcePoint" />
            <mxPoint x="90" y="330" as="targetPoint" />
            <Array as="points">
              <mxPoint x="100" y="280" />
            </Array>
          </mxGeometry>
        </mxCell>
        <mxCell id="xxz0sU0E4NPgmf-TShmJ-277" value="" style="edgeStyle=elbowEdgeStyle;fontSize=12;html=1;endArrow=ERzeroToMany;startArrow=ERmandOne;rounded=0;" parent="1" source="xxz0sU0E4NPgmf-TShmJ-84" target="xxz0sU0E4NPgmf-TShmJ-59" edge="1">
          <mxGeometry width="100" height="100" relative="1" as="geometry">
            <mxPoint x="510" y="980" as="sourcePoint" />
            <mxPoint x="390" y="765" as="targetPoint" />
            <Array as="points">
              <mxPoint x="400" y="730" />
            </Array>
          </mxGeometry>
        </mxCell>
        <mxCell id="xxz0sU0E4NPgmf-TShmJ-280" value="" style="edgeStyle=elbowEdgeStyle;fontSize=12;html=1;endArrow=ERzeroToMany;startArrow=ERmandOne;rounded=0;" parent="1" source="C-vyLk0tnHw3VtMMgP7b-24" target="xxz0sU0E4NPgmf-TShmJ-262" edge="1">
          <mxGeometry width="100" height="100" relative="1" as="geometry">
            <mxPoint x="-170" y="125" as="sourcePoint" />
            <mxPoint x="-170" y="732.5" as="targetPoint" />
            <Array as="points">
              <mxPoint x="-200" y="310" />
              <mxPoint x="-200" y="430" />
              <mxPoint x="-200" y="410" />
              <mxPoint x="-230" y="420" />
              <mxPoint x="-190" y="350" />
            </Array>
          </mxGeometry>
        </mxCell>
        <mxCell id="xxz0sU0E4NPgmf-TShmJ-281" value="" style="edgeStyle=elbowEdgeStyle;fontSize=12;html=1;endArrow=ERzeroToMany;startArrow=ERmandOne;rounded=0;" parent="1" source="xxz0sU0E4NPgmf-TShmJ-53" target="xxz0sU0E4NPgmf-TShmJ-259" edge="1">
          <mxGeometry width="100" height="100" relative="1" as="geometry">
            <mxPoint x="-170" y="125" as="sourcePoint" />
            <mxPoint x="140" y="530" as="targetPoint" />
            <Array as="points">
              <mxPoint x="100" y="510" />
              <mxPoint x="120" y="600" />
              <mxPoint x="100" y="600" />
              <mxPoint x="-190" y="440" />
              <mxPoint x="-190" y="420" />
              <mxPoint x="-220" y="430" />
              <mxPoint x="-180" y="360" />
            </Array>
          </mxGeometry>
        </mxCell>
        <mxCell id="xxz0sU0E4NPgmf-TShmJ-284" value="" style="edgeStyle=elbowEdgeStyle;fontSize=12;html=1;endArrow=ERzeroToOne;startArrow=ERmandOne;rounded=0;" parent="1" source="xxz0sU0E4NPgmf-TShmJ-174" target="xxz0sU0E4NPgmf-TShmJ-252" edge="1">
          <mxGeometry width="100" height="100" relative="1" as="geometry">
            <mxPoint x="80" y="890" as="sourcePoint" />
            <mxPoint x="100" y="840" as="targetPoint" />
            <Array as="points">
              <mxPoint x="110" y="925" />
            </Array>
          </mxGeometry>
        </mxCell>
        <mxCell id="xxz0sU0E4NPgmf-TShmJ-285" value="" style="edgeStyle=elbowEdgeStyle;fontSize=12;html=1;endArrow=ERzeroToMany;startArrow=ERmandOne;rounded=0;" parent="1" source="xxz0sU0E4NPgmf-TShmJ-53" target="xxz0sU0E4NPgmf-TShmJ-36" edge="1">
          <mxGeometry width="100" height="100" relative="1" as="geometry">
            <mxPoint x="140" y="565.5" as="sourcePoint" />
            <mxPoint x="80" y="485" as="targetPoint" />
            <Array as="points">
              <mxPoint x="100" y="580" />
              <mxPoint x="110" y="520" />
              <mxPoint x="130" y="610" />
              <mxPoint x="110" y="610" />
              <mxPoint x="-180" y="450" />
              <mxPoint x="-180" y="430" />
              <mxPoint x="-210" y="440" />
              <mxPoint x="-170" y="370" />
            </Array>
          </mxGeometry>
        </mxCell>
        <mxCell id="zB2zwiHP_dlj_vmlyCcP-1" value="Guest" style="shape=umlActor;verticalLabelPosition=bottom;verticalAlign=top;html=1;outlineConnect=0;" vertex="1" parent="1">
          <mxGeometry x="-330" y="1330" width="30" height="60" as="geometry" />
        </mxCell>
        <mxCell id="zB2zwiHP_dlj_vmlyCcP-52" style="edgeStyle=none;rounded=0;orthogonalLoop=1;jettySize=auto;html=1;" edge="1" parent="1" source="zB2zwiHP_dlj_vmlyCcP-14" target="zB2zwiHP_dlj_vmlyCcP-53">
          <mxGeometry relative="1" as="geometry" />
        </mxCell>
        <mxCell id="zB2zwiHP_dlj_vmlyCcP-57" style="edgeStyle=none;rounded=0;orthogonalLoop=1;jettySize=auto;html=1;" edge="1" parent="1" source="zB2zwiHP_dlj_vmlyCcP-14" target="zB2zwiHP_dlj_vmlyCcP-56">
          <mxGeometry relative="1" as="geometry" />
        </mxCell>
        <mxCell id="zB2zwiHP_dlj_vmlyCcP-59" style="edgeStyle=none;rounded=0;orthogonalLoop=1;jettySize=auto;html=1;" edge="1" parent="1" source="zB2zwiHP_dlj_vmlyCcP-14" target="zB2zwiHP_dlj_vmlyCcP-58">
          <mxGeometry relative="1" as="geometry" />
        </mxCell>
        <mxCell id="zB2zwiHP_dlj_vmlyCcP-61" style="edgeStyle=none;rounded=0;orthogonalLoop=1;jettySize=auto;html=1;" edge="1" parent="1" source="zB2zwiHP_dlj_vmlyCcP-14" target="zB2zwiHP_dlj_vmlyCcP-60">
          <mxGeometry relative="1" as="geometry" />
        </mxCell>
        <mxCell id="zB2zwiHP_dlj_vmlyCcP-71" style="edgeStyle=none;rounded=0;orthogonalLoop=1;jettySize=auto;html=1;" edge="1" parent="1" source="zB2zwiHP_dlj_vmlyCcP-14" target="zB2zwiHP_dlj_vmlyCcP-66">
          <mxGeometry relative="1" as="geometry" />
        </mxCell>
        <mxCell id="zB2zwiHP_dlj_vmlyCcP-14" value="User" style="shape=umlActor;verticalLabelPosition=bottom;verticalAlign=top;html=1;outlineConnect=0;" vertex="1" parent="1">
          <mxGeometry x="300" y="1390" width="30" height="60" as="geometry" />
        </mxCell>
        <mxCell id="zB2zwiHP_dlj_vmlyCcP-39" value="" style="swimlane;startSize=0;" vertex="1" parent="1">
          <mxGeometry x="-270" y="1180" width="520" height="570" as="geometry">
            <mxRectangle x="-170" y="1180" width="50" height="40" as="alternateBounds" />
          </mxGeometry>
        </mxCell>
        <mxCell id="zB2zwiHP_dlj_vmlyCcP-2" value="Login" style="ellipse;whiteSpace=wrap;html=1;" vertex="1" parent="zB2zwiHP_dlj_vmlyCcP-39">
          <mxGeometry x="90" y="40" width="70" height="50" as="geometry" />
        </mxCell>
        <mxCell id="zB2zwiHP_dlj_vmlyCcP-5" value="Register" style="ellipse;whiteSpace=wrap;html=1;" vertex="1" parent="zB2zwiHP_dlj_vmlyCcP-39">
          <mxGeometry x="90" y="110" width="70" height="50" as="geometry" />
        </mxCell>
        <mxCell id="zB2zwiHP_dlj_vmlyCcP-10" value="Read Landing Page" style="ellipse;whiteSpace=wrap;html=1;" vertex="1" parent="zB2zwiHP_dlj_vmlyCcP-39">
          <mxGeometry x="75" y="180" width="100" height="50" as="geometry" />
        </mxCell>
        <mxCell id="zB2zwiHP_dlj_vmlyCcP-13" value="My Course" style="ellipse;whiteSpace=wrap;html=1;" vertex="1" parent="zB2zwiHP_dlj_vmlyCcP-39">
          <mxGeometry x="345" y="10" width="70" height="50" as="geometry" />
        </mxCell>
        <mxCell id="zB2zwiHP_dlj_vmlyCcP-18" value="Favourite" style="ellipse;whiteSpace=wrap;html=1;" vertex="1" parent="zB2zwiHP_dlj_vmlyCcP-39">
          <mxGeometry x="315" y="60" width="70" height="50" as="geometry" />
        </mxCell>
        <mxCell id="zB2zwiHP_dlj_vmlyCcP-20" value="Cart" style="ellipse;whiteSpace=wrap;html=1;" vertex="1" parent="zB2zwiHP_dlj_vmlyCcP-39">
          <mxGeometry x="315" y="130" width="70" height="50" as="geometry" />
        </mxCell>
        <mxCell id="zB2zwiHP_dlj_vmlyCcP-22" style="edgeStyle=none;rounded=0;orthogonalLoop=1;jettySize=auto;html=1;" edge="1" parent="zB2zwiHP_dlj_vmlyCcP-39" source="zB2zwiHP_dlj_vmlyCcP-21" target="zB2zwiHP_dlj_vmlyCcP-20">
          <mxGeometry relative="1" as="geometry" />
        </mxCell>
        <mxCell id="zB2zwiHP_dlj_vmlyCcP-21" value="Delete" style="ellipse;whiteSpace=wrap;html=1;" vertex="1" parent="zB2zwiHP_dlj_vmlyCcP-39">
          <mxGeometry x="262.5" y="90" width="50" height="30" as="geometry" />
        </mxCell>
        <mxCell id="zB2zwiHP_dlj_vmlyCcP-24" style="edgeStyle=none;rounded=0;orthogonalLoop=1;jettySize=auto;html=1;" edge="1" parent="zB2zwiHP_dlj_vmlyCcP-39" source="zB2zwiHP_dlj_vmlyCcP-23" target="zB2zwiHP_dlj_vmlyCcP-20">
          <mxGeometry relative="1" as="geometry" />
        </mxCell>
        <mxCell id="zB2zwiHP_dlj_vmlyCcP-23" value="Add" style="ellipse;whiteSpace=wrap;html=1;" vertex="1" parent="zB2zwiHP_dlj_vmlyCcP-39">
          <mxGeometry x="245" y="130" width="50" height="30" as="geometry" />
        </mxCell>
        <mxCell id="zB2zwiHP_dlj_vmlyCcP-27" style="edgeStyle=none;rounded=0;orthogonalLoop=1;jettySize=auto;html=1;" edge="1" parent="zB2zwiHP_dlj_vmlyCcP-39" source="zB2zwiHP_dlj_vmlyCcP-26" target="zB2zwiHP_dlj_vmlyCcP-20">
          <mxGeometry relative="1" as="geometry" />
        </mxCell>
        <mxCell id="zB2zwiHP_dlj_vmlyCcP-26" value="Update" style="ellipse;whiteSpace=wrap;html=1;" vertex="1" parent="zB2zwiHP_dlj_vmlyCcP-39">
          <mxGeometry x="255" y="170" width="50" height="30" as="geometry" />
        </mxCell>
        <mxCell id="zB2zwiHP_dlj_vmlyCcP-30" style="edgeStyle=none;rounded=0;orthogonalLoop=1;jettySize=auto;html=1;" edge="1" parent="zB2zwiHP_dlj_vmlyCcP-39" source="zB2zwiHP_dlj_vmlyCcP-29" target="zB2zwiHP_dlj_vmlyCcP-20">
          <mxGeometry relative="1" as="geometry" />
        </mxCell>
        <mxCell id="zB2zwiHP_dlj_vmlyCcP-29" value="Read" style="ellipse;whiteSpace=wrap;html=1;" vertex="1" parent="zB2zwiHP_dlj_vmlyCcP-39">
          <mxGeometry x="295" y="200" width="50" height="30" as="geometry" />
        </mxCell>
        <mxCell id="zB2zwiHP_dlj_vmlyCcP-32" style="edgeStyle=none;rounded=0;orthogonalLoop=1;jettySize=auto;html=1;" edge="1" parent="zB2zwiHP_dlj_vmlyCcP-39" source="zB2zwiHP_dlj_vmlyCcP-31" target="zB2zwiHP_dlj_vmlyCcP-18">
          <mxGeometry relative="1" as="geometry" />
        </mxCell>
        <mxCell id="zB2zwiHP_dlj_vmlyCcP-31" value="Create" style="ellipse;whiteSpace=wrap;html=1;" vertex="1" parent="zB2zwiHP_dlj_vmlyCcP-39">
          <mxGeometry x="245" y="50" width="50" height="30" as="geometry" />
        </mxCell>
        <mxCell id="zB2zwiHP_dlj_vmlyCcP-34" style="edgeStyle=none;rounded=0;orthogonalLoop=1;jettySize=auto;html=1;" edge="1" parent="zB2zwiHP_dlj_vmlyCcP-39" source="zB2zwiHP_dlj_vmlyCcP-33" target="zB2zwiHP_dlj_vmlyCcP-18">
          <mxGeometry relative="1" as="geometry" />
        </mxCell>
        <mxCell id="zB2zwiHP_dlj_vmlyCcP-33" value="Delete" style="ellipse;whiteSpace=wrap;html=1;" vertex="1" parent="zB2zwiHP_dlj_vmlyCcP-39">
          <mxGeometry x="275" y="20" width="50" height="30" as="geometry" />
        </mxCell>
        <mxCell id="zB2zwiHP_dlj_vmlyCcP-47" value="Voucher" style="ellipse;whiteSpace=wrap;html=1;" vertex="1" parent="zB2zwiHP_dlj_vmlyCcP-39">
          <mxGeometry x="252.5" y="285" width="60" height="40" as="geometry" />
        </mxCell>
        <mxCell id="zB2zwiHP_dlj_vmlyCcP-54" style="edgeStyle=none;rounded=0;orthogonalLoop=1;jettySize=auto;html=1;" edge="1" parent="zB2zwiHP_dlj_vmlyCcP-39" source="zB2zwiHP_dlj_vmlyCcP-53" target="zB2zwiHP_dlj_vmlyCcP-47">
          <mxGeometry relative="1" as="geometry" />
        </mxCell>
        <mxCell id="zB2zwiHP_dlj_vmlyCcP-53" value="Read" style="ellipse;whiteSpace=wrap;html=1;" vertex="1" parent="zB2zwiHP_dlj_vmlyCcP-39">
          <mxGeometry x="352.5" y="285" width="50" height="30" as="geometry" />
        </mxCell>
        <mxCell id="zB2zwiHP_dlj_vmlyCcP-56" value="Checkout &amp;amp; Order" style="ellipse;whiteSpace=wrap;html=1;" vertex="1" parent="zB2zwiHP_dlj_vmlyCcP-39">
          <mxGeometry x="292.5" y="330" width="85" height="40" as="geometry" />
        </mxCell>
        <mxCell id="zB2zwiHP_dlj_vmlyCcP-114" style="edgeStyle=none;rounded=0;orthogonalLoop=1;jettySize=auto;html=1;" edge="1" parent="zB2zwiHP_dlj_vmlyCcP-39" source="zB2zwiHP_dlj_vmlyCcP-58" target="zB2zwiHP_dlj_vmlyCcP-106">
          <mxGeometry relative="1" as="geometry" />
        </mxCell>
        <mxCell id="zB2zwiHP_dlj_vmlyCcP-58" value="Payment" style="ellipse;whiteSpace=wrap;html=1;" vertex="1" parent="zB2zwiHP_dlj_vmlyCcP-39">
          <mxGeometry x="277.5" y="500" width="85" height="40" as="geometry" />
        </mxCell>
        <mxCell id="zB2zwiHP_dlj_vmlyCcP-60" value="Course detail" style="ellipse;whiteSpace=wrap;html=1;" vertex="1" parent="zB2zwiHP_dlj_vmlyCcP-39">
          <mxGeometry x="242.5" y="240" width="85" height="40" as="geometry" />
        </mxCell>
        <mxCell id="zB2zwiHP_dlj_vmlyCcP-62" value="Gift" style="ellipse;whiteSpace=wrap;html=1;" vertex="1" parent="zB2zwiHP_dlj_vmlyCcP-39">
          <mxGeometry x="220" y="360" width="85" height="40" as="geometry" />
        </mxCell>
        <mxCell id="zB2zwiHP_dlj_vmlyCcP-70" style="edgeStyle=none;rounded=0;orthogonalLoop=1;jettySize=auto;html=1;" edge="1" parent="zB2zwiHP_dlj_vmlyCcP-39" source="zB2zwiHP_dlj_vmlyCcP-63" target="zB2zwiHP_dlj_vmlyCcP-62">
          <mxGeometry relative="1" as="geometry" />
        </mxCell>
        <mxCell id="zB2zwiHP_dlj_vmlyCcP-63" value="Delete" style="ellipse;whiteSpace=wrap;html=1;" vertex="1" parent="zB2zwiHP_dlj_vmlyCcP-39">
          <mxGeometry x="292.5" y="420" width="50" height="30" as="geometry" />
        </mxCell>
        <mxCell id="zB2zwiHP_dlj_vmlyCcP-69" style="edgeStyle=none;rounded=0;orthogonalLoop=1;jettySize=auto;html=1;" edge="1" parent="zB2zwiHP_dlj_vmlyCcP-39" source="zB2zwiHP_dlj_vmlyCcP-64" target="zB2zwiHP_dlj_vmlyCcP-62">
          <mxGeometry relative="1" as="geometry" />
        </mxCell>
        <mxCell id="zB2zwiHP_dlj_vmlyCcP-64" value="Create" style="ellipse;whiteSpace=wrap;html=1;" vertex="1" parent="zB2zwiHP_dlj_vmlyCcP-39">
          <mxGeometry x="180" y="400" width="50" height="30" as="geometry" />
        </mxCell>
        <mxCell id="zB2zwiHP_dlj_vmlyCcP-68" style="edgeStyle=none;rounded=0;orthogonalLoop=1;jettySize=auto;html=1;" edge="1" parent="zB2zwiHP_dlj_vmlyCcP-39" source="zB2zwiHP_dlj_vmlyCcP-65" target="zB2zwiHP_dlj_vmlyCcP-62">
          <mxGeometry relative="1" as="geometry" />
        </mxCell>
        <mxCell id="zB2zwiHP_dlj_vmlyCcP-65" value="Update" style="ellipse;whiteSpace=wrap;html=1;" vertex="1" parent="zB2zwiHP_dlj_vmlyCcP-39">
          <mxGeometry x="230" y="420" width="50" height="30" as="geometry" />
        </mxCell>
        <mxCell id="zB2zwiHP_dlj_vmlyCcP-67" style="edgeStyle=none;rounded=0;orthogonalLoop=1;jettySize=auto;html=1;" edge="1" parent="zB2zwiHP_dlj_vmlyCcP-39" source="zB2zwiHP_dlj_vmlyCcP-66" target="zB2zwiHP_dlj_vmlyCcP-62">
          <mxGeometry relative="1" as="geometry" />
        </mxCell>
        <mxCell id="zB2zwiHP_dlj_vmlyCcP-66" value="Read" style="ellipse;whiteSpace=wrap;html=1;" vertex="1" parent="zB2zwiHP_dlj_vmlyCcP-39">
          <mxGeometry x="327.5" y="390" width="50" height="30" as="geometry" />
        </mxCell>
        <mxCell id="zB2zwiHP_dlj_vmlyCcP-81" style="edgeStyle=none;rounded=0;orthogonalLoop=1;jettySize=auto;html=1;" edge="1" parent="zB2zwiHP_dlj_vmlyCcP-39" source="zB2zwiHP_dlj_vmlyCcP-74" target="zB2zwiHP_dlj_vmlyCcP-78">
          <mxGeometry relative="1" as="geometry" />
        </mxCell>
        <mxCell id="zB2zwiHP_dlj_vmlyCcP-83" style="edgeStyle=none;rounded=0;orthogonalLoop=1;jettySize=auto;html=1;" edge="1" parent="zB2zwiHP_dlj_vmlyCcP-39" source="zB2zwiHP_dlj_vmlyCcP-74" target="zB2zwiHP_dlj_vmlyCcP-77">
          <mxGeometry relative="1" as="geometry" />
        </mxCell>
        <mxCell id="zB2zwiHP_dlj_vmlyCcP-84" style="edgeStyle=none;rounded=0;orthogonalLoop=1;jettySize=auto;html=1;" edge="1" parent="zB2zwiHP_dlj_vmlyCcP-39" source="zB2zwiHP_dlj_vmlyCcP-74" target="zB2zwiHP_dlj_vmlyCcP-76">
          <mxGeometry relative="1" as="geometry" />
        </mxCell>
        <mxCell id="zB2zwiHP_dlj_vmlyCcP-85" style="edgeStyle=none;rounded=0;orthogonalLoop=1;jettySize=auto;html=1;" edge="1" parent="zB2zwiHP_dlj_vmlyCcP-39" source="zB2zwiHP_dlj_vmlyCcP-74" target="zB2zwiHP_dlj_vmlyCcP-75">
          <mxGeometry relative="1" as="geometry" />
        </mxCell>
        <mxCell id="zB2zwiHP_dlj_vmlyCcP-74" value="Course" style="ellipse;whiteSpace=wrap;html=1;" vertex="1" parent="zB2zwiHP_dlj_vmlyCcP-39">
          <mxGeometry x="90" y="320" width="85" height="40" as="geometry" />
        </mxCell>
        <mxCell id="zB2zwiHP_dlj_vmlyCcP-78" value="Create" style="ellipse;whiteSpace=wrap;html=1;" vertex="1" parent="zB2zwiHP_dlj_vmlyCcP-39">
          <mxGeometry x="100" y="260" width="50" height="30" as="geometry" />
        </mxCell>
        <mxCell id="zB2zwiHP_dlj_vmlyCcP-77" value="Update" style="ellipse;whiteSpace=wrap;html=1;" vertex="1" parent="zB2zwiHP_dlj_vmlyCcP-39">
          <mxGeometry x="35" y="245" width="50" height="30" as="geometry" />
        </mxCell>
        <mxCell id="zB2zwiHP_dlj_vmlyCcP-75" value="Delete" style="ellipse;whiteSpace=wrap;html=1;" vertex="1" parent="zB2zwiHP_dlj_vmlyCcP-39">
          <mxGeometry x="170" y="260" width="50" height="30" as="geometry" />
        </mxCell>
        <mxCell id="zB2zwiHP_dlj_vmlyCcP-76" value="Read" style="ellipse;whiteSpace=wrap;html=1;" vertex="1" parent="zB2zwiHP_dlj_vmlyCcP-39">
          <mxGeometry x="25" y="290" width="50" height="30" as="geometry" />
        </mxCell>
        <mxCell id="zB2zwiHP_dlj_vmlyCcP-104" value="Transactions" style="ellipse;whiteSpace=wrap;html=1;" vertex="1" parent="zB2zwiHP_dlj_vmlyCcP-39">
          <mxGeometry x="90" y="410" width="85" height="40" as="geometry" />
        </mxCell>
        <mxCell id="zB2zwiHP_dlj_vmlyCcP-110" style="edgeStyle=none;rounded=0;orthogonalLoop=1;jettySize=auto;html=1;" edge="1" parent="zB2zwiHP_dlj_vmlyCcP-39" source="zB2zwiHP_dlj_vmlyCcP-105" target="zB2zwiHP_dlj_vmlyCcP-104">
          <mxGeometry relative="1" as="geometry" />
        </mxCell>
        <mxCell id="zB2zwiHP_dlj_vmlyCcP-105" value="Read" style="ellipse;whiteSpace=wrap;html=1;" vertex="1" parent="zB2zwiHP_dlj_vmlyCcP-39">
          <mxGeometry x="170" y="470" width="50" height="30" as="geometry" />
        </mxCell>
        <mxCell id="zB2zwiHP_dlj_vmlyCcP-109" style="edgeStyle=none;rounded=0;orthogonalLoop=1;jettySize=auto;html=1;" edge="1" parent="zB2zwiHP_dlj_vmlyCcP-39" source="zB2zwiHP_dlj_vmlyCcP-106" target="zB2zwiHP_dlj_vmlyCcP-104">
          <mxGeometry relative="1" as="geometry" />
        </mxCell>
        <mxCell id="zB2zwiHP_dlj_vmlyCcP-106" value="Create" style="ellipse;whiteSpace=wrap;html=1;" vertex="1" parent="zB2zwiHP_dlj_vmlyCcP-39">
          <mxGeometry x="120" y="490" width="50" height="30" as="geometry" />
        </mxCell>
        <mxCell id="zB2zwiHP_dlj_vmlyCcP-108" style="edgeStyle=none;rounded=0;orthogonalLoop=1;jettySize=auto;html=1;" edge="1" parent="zB2zwiHP_dlj_vmlyCcP-39" source="zB2zwiHP_dlj_vmlyCcP-107" target="zB2zwiHP_dlj_vmlyCcP-104">
          <mxGeometry relative="1" as="geometry" />
        </mxCell>
        <mxCell id="zB2zwiHP_dlj_vmlyCcP-107" value="Delete" style="ellipse;whiteSpace=wrap;html=1;" vertex="1" parent="zB2zwiHP_dlj_vmlyCcP-39">
          <mxGeometry x="40" y="470" width="50" height="30" as="geometry" />
        </mxCell>
        <mxCell id="zB2zwiHP_dlj_vmlyCcP-113" style="edgeStyle=none;rounded=0;orthogonalLoop=1;jettySize=auto;html=1;" edge="1" parent="zB2zwiHP_dlj_vmlyCcP-39" source="zB2zwiHP_dlj_vmlyCcP-112" target="zB2zwiHP_dlj_vmlyCcP-104">
          <mxGeometry relative="1" as="geometry" />
        </mxCell>
        <mxCell id="zB2zwiHP_dlj_vmlyCcP-112" value="Update" style="ellipse;whiteSpace=wrap;html=1;" vertex="1" parent="zB2zwiHP_dlj_vmlyCcP-39">
          <mxGeometry x="70" y="510" width="50" height="30" as="geometry" />
        </mxCell>
        <mxCell id="zB2zwiHP_dlj_vmlyCcP-8" style="rounded=0;orthogonalLoop=1;jettySize=auto;html=1;" edge="1" parent="1" source="zB2zwiHP_dlj_vmlyCcP-1" target="zB2zwiHP_dlj_vmlyCcP-2">
          <mxGeometry relative="1" as="geometry" />
        </mxCell>
        <mxCell id="zB2zwiHP_dlj_vmlyCcP-9" style="edgeStyle=none;rounded=0;orthogonalLoop=1;jettySize=auto;html=1;" edge="1" parent="1" source="zB2zwiHP_dlj_vmlyCcP-1" target="zB2zwiHP_dlj_vmlyCcP-5">
          <mxGeometry relative="1" as="geometry" />
        </mxCell>
        <mxCell id="zB2zwiHP_dlj_vmlyCcP-12" style="rounded=0;orthogonalLoop=1;jettySize=auto;html=1;" edge="1" parent="1" source="zB2zwiHP_dlj_vmlyCcP-1" target="zB2zwiHP_dlj_vmlyCcP-10">
          <mxGeometry relative="1" as="geometry" />
        </mxCell>
        <mxCell id="zB2zwiHP_dlj_vmlyCcP-16" style="edgeStyle=none;rounded=0;orthogonalLoop=1;jettySize=auto;html=1;" edge="1" parent="1" source="zB2zwiHP_dlj_vmlyCcP-14" target="zB2zwiHP_dlj_vmlyCcP-10">
          <mxGeometry relative="1" as="geometry" />
        </mxCell>
        <mxCell id="zB2zwiHP_dlj_vmlyCcP-17" style="edgeStyle=none;rounded=0;orthogonalLoop=1;jettySize=auto;html=1;" edge="1" parent="1" source="zB2zwiHP_dlj_vmlyCcP-14" target="zB2zwiHP_dlj_vmlyCcP-13">
          <mxGeometry relative="1" as="geometry" />
        </mxCell>
        <mxCell id="zB2zwiHP_dlj_vmlyCcP-19" style="edgeStyle=none;rounded=0;orthogonalLoop=1;jettySize=auto;html=1;" edge="1" parent="1" source="zB2zwiHP_dlj_vmlyCcP-14" target="zB2zwiHP_dlj_vmlyCcP-18">
          <mxGeometry relative="1" as="geometry" />
        </mxCell>
        <mxCell id="zB2zwiHP_dlj_vmlyCcP-35" style="edgeStyle=none;rounded=0;orthogonalLoop=1;jettySize=auto;html=1;" edge="1" parent="1" source="zB2zwiHP_dlj_vmlyCcP-14" target="zB2zwiHP_dlj_vmlyCcP-20">
          <mxGeometry relative="1" as="geometry" />
        </mxCell>
        <mxCell id="zB2zwiHP_dlj_vmlyCcP-88" style="edgeStyle=none;rounded=0;orthogonalLoop=1;jettySize=auto;html=1;" edge="1" parent="1" source="zB2zwiHP_dlj_vmlyCcP-87" target="zB2zwiHP_dlj_vmlyCcP-74">
          <mxGeometry relative="1" as="geometry" />
        </mxCell>
        <mxCell id="zB2zwiHP_dlj_vmlyCcP-90" style="edgeStyle=none;rounded=0;orthogonalLoop=1;jettySize=auto;html=1;" edge="1" parent="1" source="zB2zwiHP_dlj_vmlyCcP-87" target="zB2zwiHP_dlj_vmlyCcP-62">
          <mxGeometry relative="1" as="geometry" />
        </mxCell>
        <mxCell id="zB2zwiHP_dlj_vmlyCcP-111" style="edgeStyle=none;rounded=0;orthogonalLoop=1;jettySize=auto;html=1;" edge="1" parent="1" source="zB2zwiHP_dlj_vmlyCcP-87" target="zB2zwiHP_dlj_vmlyCcP-104">
          <mxGeometry relative="1" as="geometry" />
        </mxCell>
        <mxCell id="zB2zwiHP_dlj_vmlyCcP-87" value="Admin" style="shape=umlActor;verticalLabelPosition=bottom;verticalAlign=top;html=1;outlineConnect=0;" vertex="1" parent="1">
          <mxGeometry x="-320" y="1540" width="30" height="60" as="geometry" />
        </mxCell>
        <mxCell id="zB2zwiHP_dlj_vmlyCcP-103" style="edgeStyle=none;rounded=0;orthogonalLoop=1;jettySize=auto;html=1;exitX=0;exitY=0.3333333333333333;exitDx=0;exitDy=0;exitPerimeter=0;" edge="1" parent="1" source="zB2zwiHP_dlj_vmlyCcP-87" target="zB2zwiHP_dlj_vmlyCcP-87">
          <mxGeometry relative="1" as="geometry" />
        </mxCell>
      </root>
    </mxGraphModel>
  </diagram>
</mxfile>
